<svg width="1536" height="1024" viewBox="0 0 1536 1024" fill="none" xmlns="http://www.w3.org/2000/svg">
<g clip-path="url(#clip0_9320_6)">
<path d="M1153.75 326.625C1154.7 326.6 1155.65 326.576 1156.63 326.551C1166.52 326.51 1173.34 329.609 1180.31 336.5C1180.81 336.973 1181.31 337.446 1181.82 337.934C1183.23 339.275 1184.61 340.637 1186 342C1186.76 342.679 1187.53 343.359 1188.32 344.059C1190.92 347.062 1190.68 349.383 1190.51 353.226C1189.13 360.747 1184.31 366.629 1179.62 372.437C1175.98 377.358 1174.85 381.078 1175.27 387.195C1176.52 391.975 1179.39 394.79 1183 398C1183.43 398.463 1183.86 398.926 1184.31 399.402C1186.36 401.336 1188.53 402.701 1190.93 404.18C1192.37 405.079 1192.37 405.079 1193.84 405.996C1195.85 407.243 1197.87 408.488 1199.89 409.73C1208.71 415.245 1213.43 420.079 1217.88 429.437C1218.76 431.254 1219.64 433.07 1220.52 434.887C1220.95 435.769 1221.37 436.651 1221.81 437.56C1222.8 439.584 1223.81 441.588 1224.85 443.582C1228.75 451.071 1232.17 458.745 1235.5 466.5C1235.96 467.54 1236.42 468.58 1236.89 469.651C1237.52 471.139 1237.52 471.139 1238.16 472.656C1238.54 473.541 1238.92 474.426 1239.31 475.338C1240.3 479.165 1239.84 482.425 1237.98 485.914C1227.86 498.722 1216.36 510.8 1203.54 520.894C1202.7 521.589 1201.86 522.284 1201 523C1200.03 523.629 1199.06 524.258 1198.06 524.906C1195.06 529.408 1196.16 532.608 1197.08 537.787C1197.35 539.074 1197.61 540.361 1197.88 541.687C1198.13 543.031 1198.38 544.375 1198.62 545.719C1199.14 548.473 1199.67 551.223 1200.21 553.971C1200.95 557.719 1201.64 561.475 1202.32 565.234C1205.73 585.078 1205.73 585.078 1212.19 604.062C1213.96 608.149 1214.27 611.681 1214.44 616.125C1214.68 621.42 1215.28 624.769 1218.55 628.961C1224.45 637.256 1225.5 646.133 1227 655.937C1227.26 657.562 1227.52 659.186 1227.78 660.809C1228.42 664.813 1229.04 668.819 1229.66 672.826C1230.31 676.967 1230.98 681.105 1231.64 685.243C1232.12 688.196 1232.59 691.151 1233.05 694.105C1234.65 704.08 1236.33 714.039 1238 724C1239.26 724.124 1240.52 724.247 1241.81 724.375C1253.01 725.648 1261.49 728.103 1271.32 733.57C1276.74 736.464 1282.3 739.079 1287.84 741.74C1289.89 742.729 1291.95 743.724 1294 744.72C1300.03 747.641 1306.06 750.53 1312.2 753.212C1314.55 754.242 1316.87 755.344 1319.19 756.437C1324.59 758.91 1330.13 760.869 1335.74 762.82C1338.33 763.757 1340.77 764.76 1343.25 765.937C1354.46 771.038 1366.47 774.252 1378.38 777.25C1379.35 777.496 1380.32 777.742 1381.32 777.996C1387.1 779.411 1392.86 780.539 1398.74 781.454C1401.74 781.957 1404.71 782.564 1407.69 783.189C1416.78 785.052 1425.55 785.475 1434.81 785.375C1435.57 785.371 1436.32 785.367 1437.1 785.363C1450.41 785.281 1463.49 784.303 1476.69 782.462C1480.15 781.979 1483.62 781.531 1487.08 781.086C1499.46 779.45 1511.65 777.435 1523.81 774.575C1524.68 774.369 1525.56 774.164 1526.46 773.953C1527.22 773.769 1527.98 773.585 1528.77 773.395C1531 773 1531 773 1536 773C1536 855.83 1536 938.66 1536 1024C1398.06 1024 1260.12 1024 1118 1024C1118 1011.65 1118 1011.65 1118.59 1005.35C1118.71 1003.94 1118.84 1002.53 1118.96 1001.12C1119.03 1000.39 1119.1 999.655 1119.17 998.903C1120.46 984.705 1121.41 970.515 1122.11 956.276C1122.79 942.628 1123.81 929.026 1125.04 915.416C1126.63 897.429 1125.81 883.388 1118.31 866.75C1117.87 865.758 1117.43 864.767 1116.98 863.745C1115.67 860.822 1114.34 857.909 1113 855C1112.63 854.187 1112.25 853.375 1111.87 852.538C1108.06 844.371 1104.13 836.698 1098 830C1097.25 829.166 1096.49 828.332 1095.71 827.473C1089.2 820.622 1081.99 814.995 1074.43 809.348C1069.36 805.553 1064.47 801.547 1059.62 797.489C1059.01 796.988 1058.41 796.488 1057.78 795.973C1057.17 795.471 1056.57 794.969 1055.94 794.452C1054.01 792.941 1054.01 792.941 1051.76 791.759C1044.17 787.501 1041.71 781.409 1038.44 773.625C1037.87 772.341 1037.31 771.059 1036.74 769.778C1035.63 767.281 1034.53 764.779 1033.44 762.273C1031.78 758.508 1030 754.85 1028.12 751.187C1024.37 743.77 1020.69 736.313 1017.05 728.839C1016.35 727.411 1015.65 725.984 1014.95 724.558C1013.96 722.545 1012.98 720.529 1012 718.512C1011.42 717.33 1010.85 716.149 1010.25 714.932C1009 712 1009 712 1009 709C1010.35 708.652 1010.35 708.652 1011.73 708.297C1015.11 707.43 1018.49 706.561 1021.86 705.692C1023.32 705.317 1024.77 704.943 1026.23 704.569C1028.33 704.028 1030.43 703.487 1032.54 702.945C1033.8 702.621 1035.06 702.296 1036.36 701.961C1038.73 701.335 1041.08 700.649 1043.42 699.895C1047.64 698.839 1051.46 698.688 1055.79 698.734C1056.62 698.74 1057.45 698.745 1058.3 698.75C1067.07 698.889 1075.64 699.991 1084.31 701.25C1085.95 701.478 1087.59 701.705 1089.23 701.93C1092.54 702.388 1095.85 702.851 1099.16 703.32C1105.89 704.271 1112.64 705.16 1119.39 706.05C1122.52 706.463 1125.65 706.882 1128.77 707.301C1130.3 707.504 1130.3 707.504 1131.85 707.712C1132.56 707.807 1133.27 707.902 1134 708C1133.06 702.844 1132.12 697.689 1131.17 692.534C1130.85 690.786 1130.54 689.039 1130.22 687.291C1128.7 678.977 1127.18 670.675 1125.36 662.422C1124.12 656.759 1123.25 651.127 1122.56 645.375C1121.67 638.379 1120.56 631.516 1119.06 624.625C1117.16 615.708 1115.94 606.728 1114.81 597.687C1114.69 596.686 1114.69 596.686 1114.56 595.664C1112.93 582.761 1111.87 570.022 1112.08 557.023C1112.09 556.156 1112.1 555.289 1112.12 554.395C1112.17 550.821 1112.23 547.247 1112.32 543.674C1112.61 532.2 1111.89 523.579 1107 513C1106.2 510.817 1105.43 508.624 1104.68 506.422C1104.31 505.332 1103.94 504.241 1103.56 503.118C1091.83 467.977 1091.83 467.977 1095.79 455.465C1096.18 454.242 1096.56 453.019 1096.96 451.76C1097.37 450.486 1097.78 449.211 1098.19 447.937C1098.57 446.703 1098.96 445.469 1099.36 444.197C1101.71 436.765 1104.24 429.419 1106.92 422.099C1108.21 418.405 1109.26 414.681 1110.23 410.891C1111 409 1111 409 1114 407C1115.82 406.346 1115.82 406.346 1117.84 405.781C1118.59 405.572 1119.34 405.363 1120.11 405.147C1120.9 404.934 1121.69 404.72 1122.5 404.5C1123.31 404.279 1124.11 404.059 1124.94 403.831C1132.22 401.875 1139.43 400 1147 400C1146.89 398.353 1146.76 396.708 1146.62 395.062C1146.56 394.146 1146.49 393.229 1146.41 392.285C1146.28 391.531 1146.14 390.777 1146 390C1142.9 388.452 1139.63 388.556 1136.21 388.281C1134 388 1134 388 1133 387C1132.75 383.767 1132.62 380.536 1132.48 377.297C1131.97 373.788 1130.92 371.928 1129 369C1128.56 365.484 1128.52 363.723 1130.5 360.746C1132.37 357.329 1132.33 354.94 1132.38 351.062C1132.76 343.248 1134.08 335.92 1138 329C1142.48 325.945 1148.52 326.632 1153.75 326.625Z" fill="#E1520F"/>
<path d="M1276 841C1277.32 841 1278.64 841 1280 841C1280 841.66 1280 842.32 1280 843C1281.28 843.377 1281.28 843.377 1282.59 843.762C1286.25 845.09 1289.29 846.807 1292.62 848.812C1299.93 853.1 1307.44 856.27 1315.36 859.273C1325.17 863.001 1325.17 863.001 1328.81 864.938C1332.58 866.912 1336.51 868.354 1340.5 869.812C1345.85 871.774 1351.11 873.859 1356.31 876.188C1364.69 879.931 1373.19 883.361 1381.7 886.794C1388.09 889.377 1394.42 892.04 1400.72 894.826C1408.16 898.111 1415.18 900.972 1423.21 902.465C1426.54 903.104 1429.75 904.039 1433 905C1447.27 909.135 1461.55 913.213 1475.94 916.91C1482.76 918.665 1489.55 920.513 1496.33 922.44C1499.87 923.44 1503.38 924.345 1507 925C1507 923.68 1507 922.36 1507 921C1508.65 921 1510.3 921 1512 921C1512.46 922.392 1512.46 922.392 1512.94 923.812C1515.86 928.326 1518.99 928.684 1524 930C1525.63 930.53 1527.25 931.071 1528.88 931.625C1529.59 931.865 1530.31 932.105 1531.05 932.352C1531.7 932.566 1532.34 932.78 1533 933C1533.99 933.33 1534.98 933.66 1536 934C1536 963.7 1536 993.4 1536 1024C1449.87 1024 1363.74 1024 1275 1024C1274.5 1021.53 1274.5 1021.53 1274 1019C1272.11 1017.1 1272.11 1017.1 1269.56 1015.5C1268.08 1014.48 1268.08 1014.48 1266.56 1013.43C1266 1013.05 1265.44 1012.67 1264.86 1012.28C1261.24 1009.79 1257.69 1007.2 1254.12 1004.62C1253.35 1004.07 1252.58 1003.52 1251.79 1002.94C1245.95 998.733 1240.25 994.384 1234.6 989.926C1232.44 988.323 1230.45 987.087 1228 986C1228 985.34 1228 984.68 1228 984C1227.43 983.727 1226.85 983.453 1226.26 983.172C1224 981.998 1221.96 980.722 1219.88 979.25C1219.19 978.781 1218.51 978.312 1217.8 977.828C1214.17 974.149 1213.73 968.961 1213.18 964C1211.58 950.902 1210.01 940.333 1203 929C1201.59 926.455 1200.23 923.884 1198.88 921.312C1198.54 920.679 1198.2 920.046 1197.85 919.394C1193.12 910.558 1189.42 901.638 1186.13 892.18C1185.25 889.694 1184.32 887.286 1183.25 884.875C1182 882 1182 882 1181 878C1183.31 876.02 1185.62 874.04 1188 872C1198.16 875.705 1208.28 879.473 1218.34 883.435C1224.29 885.762 1230.29 887.91 1236.34 889.959C1240.41 891.355 1244.2 892.994 1248 895C1248.27 894.237 1248.54 893.474 1248.81 892.688C1250 890 1250 890 1251.47 888.617C1253.33 886.656 1253.85 885.009 1254.62 882.438C1255.95 878.101 1255.95 878.101 1257 876C1257.66 876 1258.32 876 1259 876C1259.29 875.113 1259.58 874.226 1259.88 873.312C1260.83 870.496 1261.87 867.749 1263 865C1263.66 865 1264.32 865 1265 865C1265.07 864.343 1265.14 863.685 1265.22 863.008C1266.29 858.871 1268.34 855.54 1270.5 851.875C1271.33 850.457 1272.15 849.038 1272.97 847.617C1273.52 846.683 1273.52 846.683 1274.08 845.73C1275.14 843.845 1275.14 843.845 1276 841Z" fill="#BF3F23"/>
<path d="M1296.27 745.348C1297.44 745.914 1298.61 746.479 1299.81 747.062C1300.46 747.37 1301.1 747.677 1301.76 747.994C1304.56 749.328 1307.34 750.681 1310.13 752.032C1318.62 756.142 1327.01 759.88 1335.95 762.926C1338.48 763.816 1340.84 764.792 1343.25 765.937C1354.46 771.038 1366.47 774.252 1378.38 777.25C1379.84 777.619 1379.84 777.619 1381.32 777.996C1387.1 779.411 1392.87 780.539 1398.74 781.454C1401.74 781.957 1404.71 782.564 1407.69 783.189C1416.78 785.052 1425.55 785.476 1434.81 785.375C1435.57 785.371 1436.32 785.367 1437.1 785.363C1450.41 785.281 1463.5 784.303 1476.69 782.462C1480.15 781.979 1483.62 781.531 1487.08 781.086C1499.46 779.45 1511.65 777.435 1523.81 774.575C1525.12 774.267 1525.12 774.267 1526.47 773.953C1527.22 773.769 1527.98 773.585 1528.77 773.395C1531 773 1531 773 1536 773C1536 823.82 1536 874.64 1536 927C1508.32 918.696 1508.32 918.696 1498.13 914.781C1494.46 913.436 1490.74 912.259 1487.03 911.062C1484 910 1484 910 1480.68 908.527C1476.55 906.815 1472.44 905.679 1468.13 904.562C1462.64 903.099 1457.55 901.536 1452.45 899.018C1449.44 897.769 1446.43 897.015 1443.27 896.223C1434.82 894.036 1426.58 891.304 1418.31 888.5C1416.76 887.976 1415.2 887.452 1413.64 886.929C1411.23 886.116 1408.81 885.302 1406.39 884.487C1400.64 882.55 1394.9 880.631 1389.14 878.723C1388.34 878.456 1387.54 878.19 1386.71 877.915C1383.6 876.883 1380.5 875.851 1377.39 874.821C1351.8 866.339 1327.61 856.21 1304.75 841.727C1300.92 839.324 1296.98 837.14 1293 835C1293 834.34 1293 833.68 1293 833C1292.05 832.917 1291.1 832.835 1290.13 832.75C1288.58 832.379 1288.58 832.379 1287 832C1286.3 830.684 1285.63 829.35 1285 828C1283.34 827.66 1281.67 827.328 1280 827C1277.5 825.804 1277.5 825.804 1274.87 824.305C1273.9 823.753 1272.92 823.201 1271.92 822.633C1270.41 821.763 1270.41 821.763 1268.88 820.875C1267.89 820.318 1266.91 819.761 1265.9 819.187C1259.97 815.801 1254.14 812.291 1248.43 808.546C1246.12 807.016 1246.12 807.016 1244.01 806.003C1242.37 805.152 1242.37 805.152 1240 803C1239.13 799.854 1239.11 796.812 1239.13 793.562C1239.1 792.225 1239.1 792.225 1239.08 790.861C1239.05 789.072 1239.03 787.282 1239.03 785.492C1239 783.305 1238.9 781.149 1238.75 778.969C1238.32 771.086 1238.32 771.086 1240.16 768.137C1243.04 765.516 1246.17 764.338 1250 764C1250 763.34 1250 762.68 1250 762C1250.68 761.746 1251.35 761.492 1252.05 761.23C1252.94 760.886 1253.83 760.542 1254.75 760.187C1256.07 759.683 1256.07 759.683 1257.42 759.168C1260.01 758.109 1260.01 758.109 1262.03 756.469C1264.22 754.835 1266.15 754.116 1268.75 753.312C1269.55 753.061 1270.35 752.81 1271.17 752.551C1272.08 752.278 1272.08 752.278 1273 752C1273 751.34 1273 750.68 1273 750C1275.2 748.792 1277.41 747.609 1279.63 746.437C1280.24 746.095 1280.86 745.753 1281.5 745.4C1287.28 742.388 1290.42 742.936 1296.27 745.348Z" fill="#BF3918"/>
<path d="M1240 814C1242.06 814.752 1244.12 815.502 1246.19 816.25C1251.29 818.2 1256.05 820.531 1260.87 823.062C1268.36 826.97 1275.76 829.2 1284 831C1284 830.34 1284 829.68 1284 829C1283.34 828.67 1282.68 828.34 1282 828C1282.99 828 1283.98 828 1285 828C1286.33 829.333 1287.67 830.666 1289 832C1291.14 832.787 1291.14 832.787 1293 833C1293 833.66 1293 834.32 1293 835C1293.8 835.216 1294.6 835.433 1295.42 835.656C1300.07 837.402 1304.04 839.891 1308.25 842.5C1310.04 843.59 1311.84 844.679 1313.64 845.765C1314.54 846.31 1315.44 846.855 1316.36 847.416C1334.76 858.473 1353.32 866.36 1373.8 872.734C1382.26 875.374 1390.66 878.188 1399.06 881C1400.62 881.518 1402.17 882.037 1403.72 882.555C1410.59 884.849 1417.46 887.153 1424.32 889.476C1425.41 889.844 1426.5 890.211 1427.62 890.59C1429.58 891.252 1431.55 891.919 1433.51 892.59C1437.51 893.94 1441.43 895.135 1445.58 895.961C1449.55 896.782 1452.91 898.246 1456.57 899.961C1461.2 901.941 1466.08 903.162 1470.94 904.5C1477.71 906.373 1484.27 908.36 1490.75 911.101C1493.14 912.054 1495.53 912.789 1498 913.5C1501.29 914.449 1504.43 915.539 1507.59 916.863C1513.16 919.119 1518.82 920.921 1524.56 922.687C1526.52 923.293 1528.48 923.9 1530.44 924.512C1531.29 924.774 1532.15 925.037 1533.03 925.307C1535 926 1535 926 1536 927C1536.04 929.333 1536.04 931.667 1536 934C1531.02 932.939 1526.06 931.811 1521.12 930.562C1520.22 930.337 1519.31 930.111 1518.38 929.879C1515.85 928.945 1514.67 928.097 1513 926C1512.31 923.812 1512.31 923.812 1512 922C1510.35 921.67 1508.7 921.34 1507 921C1507 922.32 1507 923.64 1507 925C1498.97 924.4 1491.49 922.44 1483.75 920.312C1482.41 919.95 1481.07 919.587 1479.74 919.225C1467.52 915.911 1455.35 912.455 1443.2 908.883C1437.69 907.274 1432.19 905.797 1426.59 904.556C1418.62 902.78 1411.46 900.376 1404 897C1401.07 895.733 1398.13 894.49 1395.19 893.25C1394.39 892.913 1393.6 892.575 1392.77 892.228C1386.27 889.49 1379.71 886.919 1373.12 884.375C1365.88 881.573 1358.8 878.623 1351.78 875.269C1348.09 873.584 1344.29 872.262 1340.46 870.922C1338.3 870.112 1336.34 869.207 1334.31 868.125C1330.41 866.075 1326.32 864.578 1322.19 863.062C1307.5 857.662 1293.67 850.586 1280 843C1280 842.34 1280 841.68 1280 841C1278.68 841 1277.36 841 1276 841C1275.88 841.577 1275.75 842.155 1275.63 842.75C1274.98 845.061 1274.11 846.899 1272.97 849.004C1272.57 849.744 1272.17 850.485 1271.76 851.248C1271.34 852.012 1270.93 852.775 1270.5 853.562C1269.67 855.083 1268.85 856.605 1268.03 858.129C1267.67 858.8 1267.3 859.471 1266.92 860.162C1265.87 862.145 1265.87 862.145 1265 865C1264.34 865 1263.68 865 1263 865C1262.84 866.052 1262.84 866.052 1262.69 867.125C1261.91 870.391 1260.58 873.047 1259 876C1258.34 876 1257.68 876 1257 876C1256.85 876.701 1256.71 877.402 1256.55 878.125C1254.92 885.024 1252.59 889.644 1248 895C1242.15 893.08 1236.34 891.073 1230.56 888.937C1229.38 888.501 1229.38 888.501 1228.17 888.056C1219.71 884.923 1211.3 881.661 1202.9 878.377C1197.64 876.336 1192.46 874.411 1187 873C1184.03 875.684 1184.03 875.684 1182 879C1182.31 882.284 1183.62 885.029 1185 888C1185.31 888.711 1185.62 889.423 1185.93 890.156C1186.58 891.64 1187.24 893.118 1187.92 894.59C1189.07 897.161 1190.13 899.762 1191.19 902.375C1193.47 907.887 1195.96 913.292 1198.5 918.687C1198.87 919.471 1199.23 920.254 1199.61 921.062C1201.83 925.734 1204.21 930.278 1206.77 934.772C1209.46 939.653 1211.36 943.669 1212.06 949.246C1212.22 950.413 1212.38 951.58 1212.54 952.783C1212.69 953.989 1212.84 955.195 1213 956.437C1213.98 968.997 1213.98 968.997 1220.48 979.144C1221.37 979.695 1222.27 980.245 1223.19 980.812C1224.82 981.832 1226.43 982.885 1228 984C1228 984.66 1228 985.32 1228 986C1228.71 986.24 1229.41 986.479 1230.14 986.726C1233.47 988.209 1235.9 990.097 1238.75 992.375C1243.88 996.427 1249.13 1000.26 1254.5 1004C1261.84 1009.12 1268.96 1014.47 1276 1020C1275.67 1021.32 1275.34 1022.64 1275 1024C1223.19 1024 1171.38 1024 1118 1024C1118 1011.65 1118 1011.65 1118.59 1005.35C1118.71 1003.94 1118.84 1002.53 1118.96 1001.12C1119.06 1000.02 1119.06 1000.02 1119.17 998.903C1120.46 984.705 1121.41 970.515 1122.11 956.276C1122.79 942.628 1123.81 929.026 1125.03 915.416C1126.64 897.305 1125.76 883.297 1118.19 866.562C1117.75 865.566 1117.31 864.57 1116.86 863.543C1114.96 859.258 1113.03 854.999 1110.94 850.801C1110.38 849.67 1109.82 848.54 1109.25 847.375C1108.76 846.434 1108.27 845.493 1107.77 844.523C1106.78 841.283 1107.47 839.948 1109 837C1109.29 836.299 1109.58 835.597 1109.87 834.875C1111.26 832.566 1112.78 831.503 1115 830C1115.6 829.473 1116.21 828.945 1116.83 828.402C1120.06 826.314 1122.66 826.999 1126.37 827.383C1129.58 826.915 1130.69 825.47 1133.03 823.349C1137.41 820.345 1142.91 819.465 1148 818.187C1149.16 817.876 1150.33 817.565 1151.52 817.244C1156.99 815.82 1161.26 815 1167 815C1169.97 823.58 1172.94 832.16 1176 841C1173.99 834.308 1171.93 827.696 1169.63 821.107C1168.66 818.264 1168 816.028 1168 813C1174.44 812.566 1180.87 812.14 1187.31 811.718C1189.5 811.574 1191.68 811.429 1193.86 811.282C1228.34 808.961 1228.34 808.961 1240 814Z" fill="#E7601B"/>
<path d="M1114 524C1114.25 524.557 1114.5 525.114 1114.75 525.688C1115.92 528.113 1115.92 528.113 1118.04 530.043C1120.8 534.202 1120.6 537.736 1120.62 542.625C1120.71 547.884 1120.9 552.892 1121.96 558.055C1123.34 565.029 1123.53 572.054 1123.83 579.135C1124.42 592.586 1125.32 605.777 1128 619C1128.66 619 1129.32 619 1130 619C1133.46 622.859 1135.86 626.927 1136.21 632.15C1135.92 635.539 1135.45 638.836 1134.88 642.188C1134.54 644.451 1134.2 646.716 1133.87 648.98C1133.7 649.969 1133.54 650.958 1133.37 651.977C1132.56 658.555 1133.27 664.092 1134.9 670.426C1135.09 671.213 1135.29 672.001 1135.49 672.813C1136.11 675.315 1136.74 677.814 1137.38 680.312C1138.2 683.599 1139.02 686.887 1139.84 690.176C1140.03 690.956 1140.23 691.736 1140.43 692.54C1141.78 698 1142.97 703.468 1144 709C1148.29 709.66 1152.58 710.32 1157 711C1156.88 703.456 1156.76 695.912 1156.63 688.368C1156.58 685.804 1156.54 683.239 1156.5 680.675C1156.44 676.981 1156.38 673.287 1156.32 669.594C1156.29 667.884 1156.29 667.884 1156.27 666.14C1156.16 660.343 1155.83 654.738 1155 649C1152.89 623.314 1152.6 596.563 1156 571C1159.42 572.709 1160.09 576.714 1161.44 580.125C1162.04 581.628 1162.64 583.13 1163.25 584.633C1163.54 585.375 1163.84 586.117 1164.15 586.882C1166.67 593.144 1169.47 599.286 1172.25 605.438C1183.54 630.504 1183.54 630.504 1186.19 638.188C1187.78 642.725 1189.5 646.751 1194 649C1194.46 651.394 1194.46 651.394 1194.82 654.59C1195.84 661.867 1197.84 668.625 1200.15 675.566C1200.81 677.561 1201.46 679.56 1202.1 681.561C1204.4 688.612 1206.92 695.518 1209.86 702.332C1215 714.385 1215 714.385 1215 720C1201.1 719.095 1187.46 717.43 1173.82 714.684C1169.56 713.92 1165.31 713.425 1161 713C1162.24 715.857 1163.5 718.71 1164.75 721.562C1165.27 722.762 1165.27 722.762 1165.8 723.986C1167.46 727.746 1169.16 731.372 1171.27 734.902C1173 738 1173 738 1173 741C1172.48 741.098 1171.95 741.196 1171.41 741.297C1164.96 742.541 1158.58 744.014 1152.19 745.534C1148.43 746.43 1144.66 747.307 1140.88 748.125C1137.17 748.961 1133.6 749.801 1130 751C1129.67 751.66 1129.34 752.32 1129 753C1130.33 753.371 1130.33 753.371 1131.69 753.75C1135 755 1135 755 1137.25 756.812C1139.68 758.746 1141.66 759.875 1144.44 761.188C1149.57 763.66 1154.26 766.639 1159 769.79C1162.56 772.144 1166.17 774.113 1170 776C1171.6 776.99 1173.19 778.009 1174.75 779.062C1175.89 779.822 1175.89 779.822 1177.05 780.598C1179 782 1179 782 1181 784C1181.2 786.602 1181.2 786.602 1181.12 789.625C1181.11 790.628 1181.09 791.631 1181.07 792.664C1181.05 793.435 1181.02 794.206 1181 795C1174.06 791.457 1167.72 787.535 1161.51 782.832C1159.01 780.938 1159.01 780.938 1156.18 779.387C1155.1 778.7 1155.1 778.7 1154 778C1154 777.34 1154 776.68 1154 776C1153.3 775.897 1152.6 775.794 1151.88 775.688C1149 775 1149 775 1146.06 773.375C1140.89 771.051 1136.53 773.031 1131.39 774.967C1130.39 775.354 1130.39 775.354 1129.38 775.75C1128.32 776.154 1128.32 776.154 1127.24 776.567C1121.11 778.927 1115.02 781.375 1109 784C1108.03 784.412 1108.03 784.412 1107.05 784.833C1104.96 785.727 1102.89 786.642 1100.81 787.562C1100.15 787.843 1099.49 788.124 1098.81 788.414C1095.16 789.993 1095.16 789.993 1093.07 793.215C1093.04 794.098 1093.04 794.098 1093 795C1092.15 794.433 1092.15 794.433 1091.28 793.855C1089.01 792.713 1089.01 792.713 1086.78 793.863C1086.03 794.342 1085.28 794.82 1084.5 795.312C1081.65 797.092 1079.31 798.36 1076 799C1076 799.66 1076 800.32 1076 801C1076.58 801.237 1077.15 801.474 1077.75 801.719C1080.49 803.276 1082.03 805.095 1084.06 807.5C1089.87 814.105 1096.22 820.065 1103.14 825.488C1104.15 826.276 1105.15 827.064 1106.19 827.875C1107.57 828.923 1107.57 828.923 1108.98 829.992C1109.65 830.655 1110.31 831.317 1111 832C1111 836 1111 836 1108.5 838.75C1107.68 839.493 1106.85 840.235 1106 841C1105.72 840.501 1105.44 840.002 1105.14 839.488C1097.46 826.942 1086.01 817.936 1074.36 809.277C1069.3 805.516 1064.45 801.526 1059.62 797.488C1059.01 796.988 1058.41 796.488 1057.78 795.973C1057.17 795.471 1056.57 794.969 1055.94 794.452C1054.01 792.941 1054.01 792.941 1051.76 791.759C1044.17 787.501 1041.71 781.409 1038.44 773.625C1037.87 772.342 1037.31 771.059 1036.74 769.779C1035.63 767.281 1034.53 764.779 1033.44 762.273C1031.78 758.508 1030 754.851 1028.12 751.188C1024.37 743.77 1020.69 736.314 1017.05 728.839C1016.35 727.411 1015.65 725.984 1014.95 724.558C1013.96 722.545 1012.98 720.529 1012 718.512C1011.13 716.74 1011.13 716.74 1010.25 714.932C1009 712 1009 712 1009 709C1010.35 708.652 1010.35 708.652 1011.73 708.297C1015.11 707.43 1018.49 706.561 1021.86 705.692C1023.32 705.317 1024.77 704.943 1026.23 704.569C1028.33 704.029 1030.43 703.487 1032.54 702.945C1033.8 702.621 1035.06 702.296 1036.36 701.961C1038.73 701.336 1041.08 700.649 1043.42 699.895C1047.64 698.839 1051.46 698.688 1055.79 698.734C1057.03 698.742 1057.03 698.742 1058.3 698.75C1067.07 698.889 1075.64 699.991 1084.31 701.25C1085.95 701.478 1087.59 701.705 1089.23 701.93C1092.54 702.388 1095.85 702.851 1099.16 703.32C1105.89 704.271 1112.64 705.16 1119.39 706.05C1122.52 706.464 1125.65 706.882 1128.77 707.301C1129.79 707.437 1130.8 707.572 1131.85 707.712C1132.56 707.807 1133.27 707.902 1134 708C1133.06 702.844 1132.12 697.689 1131.17 692.534C1130.85 690.786 1130.54 689.039 1130.22 687.292C1128.7 678.977 1127.18 670.675 1125.36 662.422C1124.12 656.759 1123.25 651.128 1122.56 645.375C1121.67 638.379 1120.56 631.516 1119.06 624.625C1117.16 615.708 1115.94 606.728 1114.81 597.688C1114.69 596.686 1114.69 596.686 1114.56 595.664C1112.43 578.73 1111.86 562.1 1111.94 545.062C1111.94 543.107 1111.95 541.152 1111.95 539.197C1111.96 534.465 1111.98 529.732 1112 525C1112.66 524.67 1113.32 524.34 1114 524Z" fill="#FB9417"/>
<path d="M1169 598C1170.32 598.33 1171.64 598.66 1173 599C1173 599.66 1173 600.32 1173 601C1173.66 601 1174.32 601 1175 601C1175 601.66 1175 602.32 1175 603C1175.56 603.227 1176.11 603.454 1176.69 603.688C1179.7 605.395 1181.63 607.468 1184 610C1184.89 610.746 1184.89 610.746 1185.8 611.508C1192.73 617.918 1192.5 626.101 1193 635C1197.56 634.259 1199.44 631.888 1202.32 628.461C1204.67 625.02 1205.93 621.467 1207.18 617.516C1207.94 615.198 1208.85 613.146 1210 611C1210.66 611 1211.32 611 1212 611C1212 609.35 1212 607.7 1212 606C1214.4 609.601 1214.22 611.412 1214.31 615.688C1214.62 621.113 1215.2 624.666 1218.55 628.961C1224.45 637.256 1225.5 646.133 1227 655.938C1227.26 657.562 1227.52 659.186 1227.78 660.81C1228.42 664.813 1229.04 668.819 1229.66 672.826C1230.31 676.967 1230.98 681.105 1231.64 685.243C1232.12 688.196 1232.59 691.151 1233.05 694.105C1234.65 704.08 1236.33 714.04 1238 724C1239.26 724.124 1240.52 724.248 1241.81 724.375C1253.24 725.682 1262.06 728.29 1272.04 733.932C1275.45 735.79 1278.97 737.385 1282.5 739C1283.76 739.583 1285.02 740.167 1286.28 740.75C1287.18 741.162 1288.08 741.575 1289 742C1286.56 744.438 1284.09 745.589 1281 747.125C1279.93 747.664 1278.86 748.203 1277.75 748.758C1275 750 1275 750 1273 750C1273 750.66 1273 751.32 1273 752C1269.26 754.606 1265.17 756.212 1261 758C1260.15 758.536 1259.31 759.072 1258.44 759.625C1255.62 761.215 1253.19 761.629 1250 762C1250 762.66 1250 763.32 1250 764C1249.45 764.266 1248.89 764.531 1248.32 764.805C1247.23 765.334 1247.23 765.334 1246.12 765.875C1245.05 766.397 1245.05 766.397 1243.95 766.93C1241.85 767.966 1241.85 767.966 1240 770C1239.7 772.991 1239.83 775.891 1239.94 778.895C1240.04 781.941 1239.84 784.855 1239.53 787.887C1239.15 793.12 1238.93 798.084 1241 803C1245.52 808.073 1252 810.746 1258.06 813.576C1263.11 816.023 1267.91 818.917 1272.75 821.75C1274.53 822.769 1276.32 823.785 1278.11 824.797C1278.86 825.223 1279.61 825.65 1280.39 826.089C1280.92 826.39 1281.45 826.69 1282 827C1282 827.66 1282 828.32 1282 829C1282.66 829 1283.32 829 1284 829C1284 829.66 1284 830.32 1284 831C1272.69 829.99 1263.17 824.839 1253.02 820.027C1247.51 817.457 1242.13 815.246 1236.25 813.658C1234 813 1234 813 1231.61 811.932C1221.93 808.471 1208.15 811.322 1197.94 812C1187.94 812.661 1178.03 813.157 1168 813C1168.28 813.767 1168.56 814.533 1168.84 815.323C1170.09 818.795 1171.33 822.272 1172.56 825.75C1173 826.957 1173.44 828.163 1173.89 829.406C1174.3 830.566 1174.71 831.727 1175.13 832.922C1175.51 833.99 1175.89 835.058 1176.29 836.159C1177 838.989 1177.02 840.316 1176 843C1174.68 839.462 1173.37 835.919 1172.06 832.375C1171.5 830.876 1171.5 830.876 1170.93 829.348C1169.18 824.584 1167.55 820.082 1167 815C1148.04 817.673 1148.04 817.673 1131.75 825.75C1128.12 828.724 1125.92 828.178 1121.4 827.906C1117.85 828.045 1115.79 829.941 1113 832C1108.75 831.841 1105.91 828.669 1102.88 826C1102.02 825.257 1102.02 825.257 1101.14 824.499C1099.42 823.006 1097.71 821.503 1096 820C1095.08 819.203 1094.16 818.407 1093.21 817.586C1088.28 813.263 1083.83 808.752 1079.59 803.75C1078.1 801.901 1078.1 801.901 1076 801C1076 800.34 1076 799.68 1076 799C1077.75 798.015 1079.5 797.037 1081.25 796.062C1082.22 795.517 1083.2 794.972 1084.2 794.41C1086.55 793.227 1088.41 792.361 1091 792C1091.66 792.33 1092.32 792.66 1093 793C1093.33 792.01 1093.66 791.02 1094 790C1096.2 788.754 1098.32 787.702 1100.62 786.688C1101.3 786.383 1101.97 786.079 1102.66 785.766C1109.04 782.913 1115.51 780.277 1122.03 777.765C1124.15 776.944 1126.25 776.101 1128.36 775.258C1129.8 774.692 1131.24 774.127 1132.69 773.562C1133.36 773.291 1134.03 773.02 1134.72 772.74C1138.2 771.402 1140.49 770.533 1144 772C1144.82 772.286 1145.63 772.572 1146.47 772.867C1147.33 773.2 1148.18 773.532 1149.06 773.875C1149.92 774.202 1150.78 774.53 1151.66 774.867C1154.04 776.02 1155.19 777.113 1157 779C1158.81 780.284 1160.65 781.53 1162.5 782.75C1163.56 783.446 1164.61 784.142 1165.7 784.859C1170.45 787.94 1175.21 790.985 1180 794C1180.57 790.518 1180.75 787.464 1180 784C1176.89 780.343 1173.11 777.828 1168.66 776.082C1165.1 774.635 1161.95 772.686 1158.69 770.688C1158.02 770.284 1157.35 769.88 1156.67 769.464C1152.66 767.029 1148.67 764.556 1144.7 762.051C1141.85 760.286 1138.92 758.653 1136 757C1133.5 755.5 1133.5 755.5 1131 754C1130.34 753.67 1129.68 753.34 1129 753C1129.33 752.01 1129.66 751.02 1130 750C1132.36 749.191 1134.57 748.591 1137 748.062C1138.07 747.815 1138.07 747.815 1139.15 747.563C1140.66 747.214 1142.17 746.869 1143.68 746.529C1145.96 746.009 1148.23 745.456 1150.49 744.891C1151.95 744.531 1153.41 744.172 1154.88 743.812C1155.54 743.646 1156.2 743.479 1156.89 743.307C1162.22 742.028 1167.54 741.445 1173 741C1172.67 740.329 1172.34 739.659 1172.01 738.968C1170.52 735.919 1169.04 732.866 1167.56 729.812C1167.05 728.757 1166.53 727.702 1166 726.615C1165.5 725.594 1165.01 724.572 1164.5 723.52C1164.05 722.582 1163.59 721.645 1163.12 720.679C1162.04 718.103 1161.44 715.751 1161 713C1167.82 712.798 1174 713.533 1180.69 714.812C1192.08 716.901 1203.51 718.528 1215 720C1210.25 706.394 1210.25 706.394 1205.44 692.812C1205.05 691.717 1204.66 690.621 1204.25 689.492C1203.33 686.931 1202.4 684.375 1201.46 681.82C1193.28 659.365 1193.28 659.365 1194 649C1192.51 648.505 1192.51 648.505 1191 648C1187.01 643.92 1185.33 639.302 1183.38 634.062C1179.97 625.23 1176.18 616.633 1172.15 608.073C1171.74 607.191 1171.33 606.31 1170.91 605.402C1170.54 604.624 1170.17 603.845 1169.79 603.043C1169 601 1169 601 1169 598Z" fill="#F56D14"/>
<path d="M1153.75 326.625C1154.7 326.6 1155.65 326.576 1156.63 326.551C1166.52 326.51 1173.34 329.609 1180.31 336.5C1180.81 336.973 1181.31 337.446 1181.82 337.934C1183.23 339.275 1184.61 340.637 1186 342C1186.78 342.727 1187.57 343.454 1188.37 344.203C1188.91 344.796 1189.45 345.389 1190 346C1189.75 348.25 1189.75 348.25 1189 350C1189 349.34 1189 348.68 1189 348C1188.34 347.951 1187.67 347.902 1186.99 347.851C1186.11 347.777 1185.22 347.702 1184.31 347.625C1183.44 347.555 1182.57 347.486 1181.68 347.414C1179 347 1179 347 1176.59 346.004C1173.45 344.787 1170.66 344.545 1167.31 344.312C1166.17 344.226 1165.04 344.14 1163.86 344.051C1161.05 343.78 1161.05 343.78 1159 345C1158.32 346.888 1158.32 346.888 1157.88 349.062C1157.71 349.796 1157.54 350.529 1157.37 351.285C1157.19 352.134 1157.19 352.134 1157 353C1158.32 353 1159.64 353 1161 353C1163.76 357.639 1163.2 361.873 1162 367C1159.88 369.875 1159.88 369.875 1158 372C1158.3 373.342 1158.64 374.673 1159 376C1159.07 378.249 1159.09 380.5 1159.06 382.75C1159.05 383.92 1159.04 385.091 1159.04 386.297C1159.02 387.189 1159.01 388.081 1159 389C1159.66 389 1160.32 389 1161 389C1160.49 393.054 1158.63 394.525 1155.5 397C1150.87 400.548 1146.42 402.93 1141 405C1137.96 406.223 1134.93 407.466 1131.92 408.758C1130.14 409.515 1128.34 410.23 1126.52 410.867C1118.72 414.119 1116.19 421.402 1113.01 428.684C1111.96 431.086 1110.87 433.463 1109.76 435.84C1109.02 437.434 1108.29 439.029 1107.56 440.625C1107.22 441.37 1106.88 442.116 1106.53 442.883C1104.73 446.926 1103.5 450.555 1103 455C1104.22 455.289 1105.43 455.577 1106.69 455.875C1113.71 457.679 1113.71 457.679 1116 459C1116.81 461.625 1116.81 461.625 1117 464C1118.32 464.33 1119.64 464.66 1121 465C1121.99 463.35 1122.98 461.7 1124 460C1127.15 461.337 1128.68 462.544 1130.47 465.449C1130.9 466.133 1131.32 466.817 1131.76 467.521C1132.4 468.594 1132.4 468.594 1133.06 469.687C1133.5 470.383 1133.93 471.078 1134.38 471.795C1138.16 477.96 1142.13 484.596 1142 492C1140.3 494.654 1138.28 496.828 1136 499C1136.33 499.66 1136.66 500.32 1137 501C1137.99 500.67 1138.98 500.34 1140 500C1141.46 499.973 1142.93 500.009 1144.39 500.086C1145.67 500.152 1145.67 500.152 1146.98 500.219C1147.88 500.27 1148.77 500.322 1149.69 500.375C1151 500.441 1151 500.441 1152.33 500.508C1157.6 500.791 1162.78 501.283 1168 502C1168 504.31 1168 506.62 1168 509C1166.42 509.027 1164.83 509.046 1163.25 509.062C1162.37 509.074 1161.49 509.086 1160.58 509.098C1158 509 1158 509 1156.11 508.496C1153.07 507.781 1150.11 507.94 1147 508C1149.54 508.649 1152.08 509.294 1154.63 509.937C1155.34 510.12 1156.05 510.302 1156.79 510.49C1160.84 511.513 1164.86 512.379 1169 513C1169.99 518.445 1169.99 518.445 1171 524C1168.17 524.339 1165.33 524.671 1162.5 525C1161.31 525.143 1161.31 525.143 1160.1 525.289C1155.03 525.871 1150.11 526.094 1145 526C1145 524.35 1145 522.7 1145 521C1144.01 521.33 1143.02 521.66 1142 522C1141.77 522.967 1141.77 522.967 1141.53 523.953C1141.35 524.629 1141.18 525.304 1141 526C1134.94 529.085 1129.72 529.371 1123 529C1123.45 530.072 1123.91 531.145 1124.38 532.25C1124.63 532.853 1124.89 533.456 1125.15 534.078C1125.97 536.037 1125.97 536.037 1127.12 537.926C1128.22 540.517 1128.04 542.161 1127.69 544.937C1127.59 545.819 1127.49 546.701 1127.39 547.609C1127 550 1127 550 1126 552.687C1126 555.761 1126.99 556.347 1129.13 558.5C1131.24 560.423 1133.36 562.303 1135.56 564.134C1138.52 567.605 1138.9 570.313 1139.14 574.695C1139.2 575.437 1139.26 576.178 1139.33 576.942C1139.51 579.335 1139.66 581.729 1139.81 584.125C1139.93 585.765 1140.05 587.405 1140.16 589.045C1140.75 597.476 1141.27 605.923 1141.38 614.375C1141.4 615.448 1141.4 615.448 1141.42 616.543C1141.37 621.101 1140.1 624.02 1138 628C1137.15 636.67 1141.56 645.126 1146.59 651.809C1151.21 658.98 1150.97 665.985 1150.88 674.187C1150.88 676.309 1150.9 678.431 1150.92 680.553C1150.93 682.549 1150.93 684.545 1150.94 686.54C1151.01 690.449 1151.43 694.137 1152 698C1152.06 699.999 1152.09 702 1152.06 704C1152.05 704.949 1152.04 705.897 1152.04 706.875C1152.02 707.576 1152.01 708.277 1152 709C1152.99 709 1153.98 709 1155 709C1155.33 691.84 1155.66 674.68 1156 657C1156.33 657 1156.66 657 1157 657C1157 674.82 1157 692.64 1157 711C1152.71 710.67 1148.42 710.34 1144 710C1141.75 703.251 1141.75 703.251 1140.96 699.786C1140.79 699.016 1140.61 698.245 1140.43 697.451C1140.24 696.638 1140.06 695.826 1139.87 694.988C1139.68 694.138 1139.48 693.288 1139.28 692.412C1138.66 689.713 1138.05 687.013 1137.44 684.312C1136.82 681.601 1136.2 678.891 1135.58 676.18C1135.2 674.498 1134.82 672.815 1134.43 671.132C1133.73 668.038 1133 665.013 1132 662C1132.04 660.018 1132.16 658.038 1132.31 656.062C1132.45 654.206 1132.45 654.206 1132.59 652.312C1132.86 649.151 1133.26 646.019 1133.69 642.875C1133.8 641.996 1133.92 641.116 1134.03 640.211C1134.26 638.476 1134.5 636.745 1134.78 635.018C1135.35 630.43 1135.33 627.836 1132.54 624.027C1131.7 623.028 1130.86 622.029 1130 621C1130 620.34 1130 619.68 1130 619C1129.34 619 1128.68 619 1128 619C1122.72 607.05 1123.46 592.312 1122.9 579.442C1122.53 571.314 1122.08 563.462 1120.43 555.474C1119.54 550.377 1119.64 545.174 1119.61 540.012C1119.46 534.651 1118.88 531.997 1115 528C1114.67 527.01 1114.34 526.02 1114 525C1113.01 524.67 1112.02 524.34 1111 524C1109.85 521.393 1108.9 518.883 1108 516.187C1107.73 515.386 1107.45 514.584 1107.17 513.758C1106.59 512.048 1106.01 510.336 1105.44 508.623C1104.58 506.061 1103.71 503.507 1102.83 500.953C1100.1 492.942 1097.57 484.918 1095.59 476.687C1095.42 476.013 1095.26 475.338 1095.09 474.642C1093.52 467.766 1093.67 462.17 1095.79 455.465C1096.18 454.242 1096.56 453.019 1096.96 451.76C1097.37 450.486 1097.78 449.211 1098.19 447.937C1098.57 446.703 1098.96 445.469 1099.36 444.197C1101.71 436.765 1104.24 429.419 1106.92 422.099C1108.21 418.405 1109.26 414.681 1110.23 410.891C1111 409 1111 409 1114 407C1115.82 406.346 1115.82 406.346 1117.84 405.781C1118.96 405.467 1118.96 405.467 1120.11 405.147C1120.9 404.934 1121.69 404.72 1122.5 404.5C1123.71 404.169 1123.71 404.169 1124.94 403.831C1132.22 401.875 1139.43 400 1147 400C1146.89 398.353 1146.76 396.708 1146.63 395.062C1146.56 394.146 1146.49 393.229 1146.41 392.285C1146.21 391.154 1146.21 391.154 1146 390C1142.9 388.452 1139.63 388.556 1136.21 388.281C1134 388 1134 388 1133 387C1132.75 383.767 1132.62 380.536 1132.48 377.297C1131.97 373.788 1130.92 371.928 1129 369C1128.56 365.484 1128.52 363.723 1130.5 360.746C1132.37 357.329 1132.33 354.94 1132.38 351.062C1132.76 343.248 1134.08 335.92 1138 329C1142.48 325.945 1148.52 326.632 1153.75 326.625Z" fill="#F67110"/>
<path d="M1055.5 698.687C1056.3 698.689 1057.1 698.69 1057.93 698.691C1068.37 698.851 1078.69 700.431 1089 702C1087.68 702.33 1086.36 702.66 1085 703C1085 703.99 1085 704.98 1085 706C1086.32 706.33 1087.64 706.66 1089 707C1089 707.66 1089 708.32 1089 709C1085 711 1081 713 1077 715C1081.45 717.97 1081.45 717.97 1086 721C1086.5 719.515 1086.5 719.515 1087 718C1087.04 718.73 1087.08 719.459 1087.12 720.211C1088.34 724.087 1090.87 725.498 1094.12 727.625C1095.4 728.496 1096.68 729.368 1097.96 730.242C1098.63 730.692 1099.29 731.141 1099.98 731.604C1103.3 733.896 1106.52 736.332 1109.75 738.75C1114.77 742.482 1119.84 745.867 1125.34 748.879C1125.89 749.249 1126.44 749.619 1127 750C1127 750.66 1127 751.32 1127 752C1125.54 752.03 1125.54 752.03 1124.05 752.06C1120.42 752.136 1116.8 752.225 1113.18 752.317C1111.61 752.356 1110.04 752.39 1108.48 752.422C1106.22 752.468 1103.96 752.526 1101.71 752.586C1101.01 752.597 1100.31 752.609 1099.6 752.621C1095.62 752.74 1092.62 753.391 1089 755C1086.32 754.627 1084.29 753.714 1081.75 752.687C1071.97 748.95 1061.28 746.878 1051 745C1049.66 747.892 1049.66 747.892 1050.95 750.178C1051.45 751.031 1051.95 751.883 1052.46 752.762C1054.99 757.195 1057.41 761.662 1059.73 766.207C1060.37 767.465 1061.02 768.724 1061.66 769.982C1062.65 771.908 1063.64 773.834 1064.62 775.761C1065.59 777.662 1066.56 779.559 1067.54 781.457C1068.11 782.57 1068.68 783.684 1069.26 784.831C1070.97 788.074 1070.97 788.074 1073.2 791.229C1075.12 794.19 1075.41 795.553 1075 799C1073.68 799.33 1072.36 799.66 1071 800C1071.5 803.465 1071.5 803.465 1072 807C1068.13 804.138 1064.3 801.246 1060.53 798.258C1059.92 797.773 1059.3 797.289 1058.67 796.79C1057.45 795.82 1056.23 794.847 1055.01 793.872C1054.15 793.187 1054.15 793.187 1053.27 792.488C1052.76 792.081 1052.25 791.674 1051.73 791.255C1049.94 789.885 1049.94 789.885 1047.49 788.71C1044.34 786.547 1043.49 784.62 1041.95 781.144C1041.16 779.388 1041.16 779.388 1040.35 777.596C1039.94 776.67 1039.94 776.67 1039.53 775.726C1038.39 773.137 1037.22 770.564 1036.06 767.989C1035.48 766.714 1034.91 765.439 1034.34 764.162C1032.37 759.779 1030.3 755.47 1028.12 751.187C1024.37 743.77 1020.69 736.313 1017.05 728.839C1016.35 727.411 1015.65 725.984 1014.95 724.558C1013.96 722.545 1012.98 720.529 1012 718.512C1011.42 717.33 1010.85 716.149 1010.25 714.932C1009 712 1009 712 1009 709C1009.9 708.768 1010.8 708.536 1011.73 708.297C1015.11 707.43 1018.49 706.561 1021.86 705.692C1023.32 705.317 1024.77 704.943 1026.23 704.569C1028.33 704.028 1030.43 703.487 1032.54 702.945C1033.8 702.621 1035.06 702.296 1036.36 701.961C1038.82 701.311 1041.27 700.622 1043.71 699.897C1047.77 698.791 1051.33 698.659 1055.5 698.687Z" fill="#FCA51F"/>
<path d="M1156 571C1159.42 572.709 1160.09 576.714 1161.44 580.125C1162.04 581.628 1162.64 583.13 1163.25 584.633C1163.54 585.375 1163.84 586.117 1164.15 586.882C1166.67 593.144 1169.47 599.286 1172.25 605.438C1183.54 630.504 1183.54 630.504 1186.19 638.188C1187.78 642.725 1189.5 646.751 1194 649C1194.46 651.394 1194.46 651.394 1194.82 654.59C1195.84 661.867 1197.84 668.625 1200.15 675.566C1200.81 677.561 1201.46 679.56 1202.1 681.561C1204.4 688.612 1206.92 695.518 1209.86 702.332C1215 714.385 1215 714.385 1215 720C1201.24 719.105 1187.72 717.475 1174.21 714.781C1170.56 714.074 1166.91 713.511 1163.24 712.951C1162.07 712.773 1160.9 712.594 1159.7 712.41C1158.81 712.275 1157.92 712.139 1157 712C1156.99 711.329 1156.98 710.657 1156.97 709.966C1156.86 702.957 1156.75 695.949 1156.63 688.941C1156.58 686.328 1156.54 683.715 1156.5 681.102C1156.45 677.339 1156.38 673.576 1156.32 669.812C1156.29 668.07 1156.29 668.07 1156.27 666.292C1156.16 660.444 1155.84 654.788 1155 649C1152.89 623.314 1152.6 596.563 1156 571Z" fill="#F9F7F7"/>
<path d="M1189 519C1195.68 525.256 1196.97 533.422 1198.44 542.066C1198.64 543.218 1198.85 544.37 1199.06 545.556C1199.72 549.223 1200.36 552.892 1201 556.562C1204.28 580.417 1204.28 580.417 1212 603C1212.25 605.7 1212.09 608.28 1212 611C1211.34 611 1210.68 611 1210 611C1209.82 611.814 1209.82 611.814 1209.63 612.645C1207.11 622.092 1202.95 629.167 1196 636C1194.68 635.67 1193.36 635.34 1192 635C1191.91 633.298 1191.91 633.298 1191.81 631.562C1191.06 620.249 1191.06 620.249 1184.46 611.348C1183.98 610.903 1183.5 610.458 1183 610C1183 609.34 1183 608.68 1183 608C1182.42 607.732 1181.85 607.464 1181.25 607.188C1178.94 605.971 1176.98 604.697 1175 603C1175 602.34 1175 601.68 1175 601C1174.34 601 1173.68 601 1173 601C1173 600.34 1173 599.68 1173 599C1171.86 598.907 1171.86 598.907 1170.69 598.812C1168 598 1168 598 1166.49 595.844C1164.35 591.764 1162.81 587.531 1161.21 583.223C1160.5 581.345 1159.78 579.473 1159.01 577.621C1157.18 573.181 1156.26 569.774 1157 565C1159.26 560.214 1161.85 556.096 1165.69 552.438C1172.24 545.529 1171.3 536.315 1171.11 527.402C1171.05 525.718 1171.05 525.718 1171 524C1172.13 523.723 1173.26 523.446 1174.43 523.16C1175.91 522.794 1177.39 522.429 1178.88 522.062C1179.62 521.88 1180.37 521.698 1181.14 521.51C1185.17 520.548 1185.17 520.548 1189 519Z" fill="#D85112"/>
<path d="M1142 521C1142.99 521 1143.98 521 1145 521C1145 522.65 1145 524.3 1145 526C1146.11 525.836 1147.23 525.673 1148.38 525.504C1153.26 524.893 1158.08 524.888 1163 524.938C1163.87 524.942 1164.74 524.947 1165.64 524.951C1167.76 524.963 1169.88 524.981 1172 525C1172.52 536.674 1172.6 546.048 1164.44 555.25C1163.83 555.9 1163.23 556.549 1162.61 557.219C1151.92 569.045 1154.83 592.735 1154.87 607.841C1154.87 610.168 1154.87 612.495 1154.86 614.822C1154.86 622.643 1155.04 630.416 1155.5 638.223C1156.27 651.533 1156.11 664.86 1156.07 678.187C1156.06 681.674 1156.05 685.161 1156.05 688.648C1156.04 695.432 1156.02 702.216 1156 709C1154.06 709.562 1154.06 709.562 1152 710C1151 709 1151 709 1150.94 706.664C1150.98 704.664 1151.02 702.664 1151.06 700.664C1151.01 697.708 1150.81 694.895 1150.51 691.961C1150.09 687.687 1149.94 683.481 1149.93 679.188C1149.92 678.009 1149.91 676.831 1149.9 675.617C1149.88 673.206 1149.89 670.794 1149.92 668.383C1149.8 660.554 1148.39 655.749 1143.73 649.415C1139.53 643.551 1136.29 635.332 1137 628C1137.49 627.08 1137.97 626.159 1138.47 625.211C1140.25 621.468 1140.45 618.428 1140.38 614.375C1140.37 613.599 1140.36 612.823 1140.35 612.023C1140.15 603.534 1139.6 595.051 1138.99 586.583C1138.87 584.95 1138.76 583.315 1138.66 581.681C1138.51 579.35 1138.33 577.023 1138.14 574.695C1138.1 573.994 1138.06 573.292 1138.02 572.57C1137.68 568.77 1137.06 567.068 1134.56 564.125C1133.01 562.843 1131.47 561.565 1129.91 560.297C1127.93 558.635 1126.4 557.187 1125 555C1125 551.777 1125.99 549.035 1127 546C1127.49 541.949 1127.05 539.8 1125 536.375C1123 533 1123 533 1123 529C1123.94 528.927 1123.94 528.927 1124.91 528.852C1130.47 528.366 1135.62 527.494 1141 526C1141.33 524.35 1141.66 522.7 1142 521Z" fill="#EA5A0F"/>
<path d="M1051 745C1059.25 745.543 1067.27 747.431 1075.25 749.5C1076.5 749.82 1076.5 749.82 1077.78 750.147C1078.95 750.461 1078.95 750.461 1080.14 750.781C1080.84 750.968 1081.53 751.154 1082.25 751.346C1084 752 1084 752 1086 754C1090.34 753.903 1090.34 753.903 1094 752C1096.94 751.812 1096.94 751.812 1100 752C1100.66 752.66 1101.32 753.32 1102 754C1101.62 756.125 1101.62 756.125 1101 758C1101.77 758.083 1102.53 758.165 1103.32 758.25C1108.38 759.282 1113.01 761.131 1117.81 763C1119.26 763.553 1119.26 763.553 1120.74 764.117C1127.86 766.858 1127.86 766.858 1129 768C1130.65 768 1132.3 768 1134 768C1135.32 764.7 1136.64 761.4 1138 758C1145.42 761.463 1152.3 765.304 1159.1 769.84C1162.63 772.182 1166.21 774.129 1170 776C1171.6 776.99 1173.19 778.009 1174.75 779.062C1175.89 779.822 1175.89 779.822 1177.05 780.598C1179 782 1179 782 1181 784C1181.2 786.602 1181.2 786.602 1181.12 789.625C1181.11 790.628 1181.09 791.631 1181.07 792.664C1181.05 793.435 1181.02 794.206 1181 795C1174.06 791.457 1167.72 787.535 1161.51 782.832C1159.01 780.938 1159.01 780.938 1156.18 779.387C1155.46 778.929 1154.74 778.471 1154 778C1154 777.34 1154 776.68 1154 776C1153.3 775.897 1152.6 775.794 1151.88 775.688C1149 775 1149 775 1146.06 773.375C1140.89 771.051 1136.53 773.031 1131.39 774.967C1130.73 775.225 1130.06 775.484 1129.38 775.75C1128.67 776.019 1127.97 776.289 1127.24 776.567C1121.11 778.927 1115.02 781.375 1109 784C1108.36 784.275 1107.71 784.55 1107.05 784.833C1104.96 785.727 1102.89 786.642 1100.81 787.562C1100.15 787.843 1099.49 788.124 1098.81 788.414C1095.16 789.993 1095.16 789.993 1093.07 793.215C1093.04 794.098 1093.04 794.098 1093 795C1092.15 794.433 1092.15 794.433 1091.28 793.855C1089.01 792.713 1089.01 792.713 1086.78 793.863C1086.03 794.342 1085.28 794.82 1084.5 795.312C1081.65 797.092 1079.31 798.36 1076 799C1076 799.66 1076 800.32 1076 801C1076.58 801.237 1077.15 801.474 1077.75 801.719C1080.49 803.276 1082.03 805.095 1084.06 807.5C1089.87 814.105 1096.22 820.065 1103.14 825.488C1104.15 826.276 1105.15 827.064 1106.19 827.875C1107.57 828.923 1107.57 828.923 1108.98 829.992C1109.65 830.655 1110.31 831.317 1111 832C1111 836 1111 836 1108.5 838.75C1107.68 839.493 1106.85 840.235 1106 841C1105.72 840.501 1105.44 840.002 1105.14 839.488C1098.22 828.177 1088.02 819.392 1077.49 811.514C1074.77 809.467 1072.91 807.87 1071 805C1070.88 802.312 1070.88 802.312 1071 800C1072.98 799.505 1072.98 799.505 1075 799C1073.31 792.977 1070.36 787.683 1067.44 782.188C1066.9 781.174 1066.37 780.161 1065.82 779.118C1064.74 777.059 1063.65 775.001 1062.56 772.944C1061.14 770.261 1059.72 767.575 1058.31 764.887C1057.52 763.383 1056.73 761.879 1055.94 760.375C1055.58 759.696 1055.22 759.017 1054.86 758.317C1053.38 755.534 1051.89 752.82 1050.19 750.164C1049.8 749.45 1049.41 748.736 1049 748C1050 746 1050 746 1051 745Z" fill="#FA8118"/>
<path d="M1129 422C1132.54 423.484 1134.56 425.493 1137.12 428.312C1141.57 432.903 1146.13 435.562 1152 438C1152 438.66 1152 439.32 1152 440C1152.82 440.227 1153.65 440.454 1154.5 440.688C1158.67 442.249 1162.5 444.229 1166 447C1166 447.66 1166 448.32 1166 449C1166.91 449.248 1167.81 449.495 1168.75 449.75C1172.25 451.096 1173.75 452.03 1176 455C1175.95 458.016 1175.95 458.016 1175.25 461.25C1175.03 462.328 1174.81 463.405 1174.58 464.516C1174.39 465.335 1174.2 466.155 1174 467C1174.66 467 1175.32 467 1176 467C1175.34 469.31 1174.68 471.62 1174 474C1173.67 474 1173.34 474 1173 474C1170.52 486.655 1169.73 498.159 1171 511C1171.69 510.711 1172.37 510.423 1173.08 510.125C1173.98 509.754 1174.88 509.382 1175.81 509C1177.15 508.443 1177.15 508.443 1178.52 507.875C1181 507 1181 507 1184 507C1183.5 508.485 1183.5 508.485 1183 510C1180.24 511.166 1177.43 511.976 1174.57 512.84C1171.87 513.776 1171.87 513.776 1170.65 516.129C1170.44 516.746 1170.22 517.364 1170 518C1169.67 516.35 1169.34 514.7 1169 513C1168.36 512.974 1167.71 512.948 1167.05 512.922C1159.27 512.433 1152.36 510.516 1145 508C1145 507.67 1145 507.34 1145 507C1152.83 506.73 1160.27 507.769 1168 509C1168 506.69 1168 504.38 1168 502C1163.42 501.832 1158.83 501.666 1154.25 501.5C1152.95 501.452 1151.65 501.405 1150.3 501.355C1149.05 501.31 1147.8 501.265 1146.52 501.219C1145.36 501.177 1144.21 501.135 1143.02 501.092C1140.68 501.021 1138.34 501 1136 501C1136 498 1136 498 1138.5 495.312C1138.96 494.876 1139.43 494.439 1139.91 493.988C1143.1 488.181 1140.4 479.646 1139.19 473.5C1139.02 472.602 1138.86 471.703 1138.69 470.777C1137.49 464.554 1136.07 458.417 1132.75 452.938C1131.07 448.608 1132.81 444.432 1134.56 440.375C1135.94 437.141 1136.65 435.426 1136 432C1133.66 428.993 1131.79 427.542 1128 427C1128.33 425.35 1128.66 423.7 1129 422Z" fill="#CE4C13"/>
<path d="M1152 398C1152.5 398.99 1152.5 398.99 1153 400C1154.18 399.979 1155.35 399.959 1156.56 399.938C1160.47 399.931 1164.14 400.357 1168 401C1165.93 410.158 1162.12 418.982 1158.14 427.445C1156.46 431.215 1155.23 435.062 1154 439C1145 436.525 1139.17 431.507 1132.88 424.793C1131.19 422.77 1131.19 422.77 1129 423C1128.67 424.32 1128.34 425.64 1128 427C1128.74 427.083 1129.49 427.165 1130.25 427.25C1133.68 428.184 1134.99 429.065 1137 432C1136.92 436.063 1136.09 438.814 1134.38 442.5C1132.74 446.667 1132.92 448.691 1134 453C1134.72 454.627 1135.43 456.252 1136.18 457.867C1138.05 462.725 1138.94 467.914 1140 473C1140.33 474.557 1140.33 474.557 1140.67 476.145C1142.26 484.112 1142.26 484.112 1141 488C1140.71 486.824 1140.42 485.649 1140.12 484.438C1138.5 479.513 1135.93 475.465 1133.06 471.188C1132.63 470.542 1132.2 469.896 1131.76 469.23C1129.42 465.823 1127.05 462.813 1124 460C1123.73 460.804 1123.46 461.609 1123.19 462.438C1122.8 463.283 1122.4 464.129 1122 465C1120.51 465.495 1120.51 465.495 1119 466C1117.51 465.01 1117.51 465.01 1116 464C1115.81 461.375 1115.81 461.375 1116 459C1115.36 458.876 1114.72 458.752 1114.06 458.625C1110.03 457.802 1106.02 456.9 1102 456C1103.39 448.308 1106.07 441.62 1109.25 434.5C1109.72 433.424 1110.18 432.347 1110.66 431.238C1118.6 413.276 1118.6 413.276 1127.88 409.125C1128.49 408.842 1129.11 408.558 1129.74 408.266C1134.09 406.296 1138.52 404.623 1143 403C1147.82 400.99 1147.82 400.99 1152 398Z" fill="#F6620A"/>
<path d="M1212 606C1214.4 609.601 1214.22 611.412 1214.31 615.688C1214.62 621.113 1215.2 624.666 1218.55 628.961C1224.45 637.256 1225.5 646.133 1227 655.938C1227.26 657.552 1227.51 659.167 1227.77 660.781C1228.41 664.78 1229.03 668.782 1229.66 672.784C1230.34 677.165 1231.04 681.541 1231.75 685.918C1232.07 687.935 1232.39 689.953 1232.71 691.97C1233.58 697.497 1234.54 702.996 1235.59 708.49C1236.2 712.255 1236.73 716.23 1236 720C1234.8 721.637 1234.8 721.637 1233 723C1230.52 723.074 1230.52 723.074 1227.81 722.688C1226.91 722.568 1226.01 722.448 1225.08 722.324C1224.39 722.217 1223.71 722.11 1223 722C1222.84 721.451 1222.67 720.902 1222.5 720.336C1217.81 704.868 1211.83 690.3 1205.02 675.667C1198.94 662.488 1198.94 662.488 1199 655C1200.14 652.509 1201.09 650.91 1203 649C1200.69 648.67 1198.38 648.34 1196 648C1196 647.34 1196 646.68 1196 646C1198.19 644.492 1198.19 644.492 1201 642.875C1201.93 642.336 1202.86 641.797 1203.81 641.242C1204.53 640.832 1205.26 640.422 1206 640C1203.03 639.34 1200.06 638.68 1197 638C1197 634 1197 634 1198.39 632.246C1199.31 631.351 1199.31 631.351 1200.25 630.438C1203.94 626.468 1205.56 622.642 1207.18 617.516C1207.94 615.198 1208.85 613.146 1210 611C1210.66 611 1211.32 611 1212 611C1212 609.35 1212 607.7 1212 606Z" fill="#F56208"/>
<path d="M1153.75 326.625C1154.7 326.6 1155.65 326.576 1156.63 326.551C1166.52 326.51 1173.34 329.609 1180.31 336.5C1180.81 336.973 1181.31 337.446 1181.82 337.934C1183.23 339.275 1184.61 340.637 1186 342C1186.78 342.727 1187.56 343.454 1188.37 344.203C1188.91 344.796 1189.45 345.389 1190 346C1189.75 348.25 1189.75 348.25 1189 350C1189 349.34 1189 348.68 1189 348C1188.34 347.951 1187.67 347.902 1186.99 347.851C1186.1 347.777 1185.22 347.702 1184.31 347.625C1183.44 347.555 1182.57 347.486 1181.68 347.414C1179 347 1179 347 1176.59 346.004C1173.45 344.787 1170.66 344.545 1167.31 344.312C1166.17 344.226 1165.04 344.14 1163.86 344.051C1161.05 343.78 1161.05 343.78 1159 345C1158.31 346.888 1158.31 346.888 1157.87 349.062C1157.71 349.796 1157.54 350.529 1157.37 351.285C1157.25 351.851 1157.12 352.417 1157 353C1158.32 353 1159.64 353 1161 353C1163.76 357.639 1163.2 361.873 1162 367C1159.87 369.875 1159.87 369.875 1158 372C1158.3 373.342 1158.64 374.673 1159 376C1159.07 378.249 1159.08 380.5 1159.06 382.75C1159.05 383.92 1159.04 385.091 1159.03 386.297C1159.02 387.189 1159.01 388.081 1159 389C1159.66 389.33 1160.32 389.66 1161 390C1159.68 390 1158.36 390 1157 390C1157 386.7 1157 383.4 1157 380C1156.34 380 1155.68 380 1155 380C1154.75 380.846 1154.5 381.691 1154.25 382.562C1152.86 386.384 1151.09 389.519 1149 393C1148.38 392.361 1147.76 391.721 1147.12 391.062C1143.32 388.553 1140.57 388.407 1136.11 388.176C1134 388 1134 388 1133 387C1132.75 383.767 1132.62 380.536 1132.48 377.297C1131.97 373.788 1130.92 371.928 1129 369C1128.56 365.484 1128.52 363.723 1130.5 360.746C1132.37 357.329 1132.33 354.94 1132.37 351.062C1132.76 343.248 1134.08 335.92 1138 329C1142.48 325.945 1148.52 326.632 1153.75 326.625Z" fill="#F14E0D"/>
<path d="M1169 598C1170.32 598.33 1171.64 598.66 1173 599C1173 599.66 1173 600.32 1173 601C1173.66 601 1174.32 601 1175 601C1175 601.66 1175 602.32 1175 603C1175.56 603.227 1176.11 603.454 1176.69 603.688C1179.7 605.395 1181.63 607.468 1184 610C1184.6 610.498 1185.19 610.995 1185.8 611.508C1190.85 616.175 1191.61 620.213 1192.06 626.812C1192.08 627.566 1192.1 628.32 1192.12 629.097C1192.18 631.549 1192.18 631.549 1193 635C1196.31 637.34 1199.36 638.341 1203.38 638.688C1204.57 638.791 1205.77 638.894 1207 639C1204.25 641.956 1201.58 644.116 1198 646C1197.34 646 1196.68 646 1196 646C1196 646.66 1196 647.32 1196 648C1198.64 648 1201.28 648 1204 648C1203.32 648.969 1202.64 649.939 1201.94 650.938C1199.45 655.443 1199.75 659.109 1201 664C1203.18 669.63 1205.7 675.09 1208.25 680.562C1212.84 690.475 1216.94 700.214 1219.98 710.722C1220.86 713.885 1220.86 713.885 1222.13 716.198C1223 718 1223 718 1223 722C1219.39 721.919 1215.79 721.806 1212.19 721.688C1211.16 721.665 1210.14 721.642 1209.08 721.619C1208.1 721.584 1207.12 721.548 1206.11 721.512C1205.2 721.486 1204.29 721.459 1203.36 721.432C1201 721 1201 721 1198 718C1203.61 718.66 1209.22 719.32 1215 720C1210.25 706.394 1210.25 706.394 1205.44 692.812C1204.85 691.169 1204.85 691.169 1204.25 689.492C1203.33 686.931 1202.4 684.375 1201.46 681.82C1193.28 659.365 1193.28 659.365 1194 649C1192.51 648.505 1192.51 648.505 1191 648C1187.01 643.92 1185.33 639.302 1183.38 634.062C1179.97 625.23 1176.18 616.633 1172.15 608.073C1171.74 607.191 1171.33 606.31 1170.91 605.402C1170.54 604.624 1170.17 603.845 1169.79 603.043C1169 601 1169 601 1169 598Z" fill="#F97D0C"/>
<path d="M1155 380C1155.66 380 1156.32 380 1157 380C1157 383.3 1157 386.6 1157 390C1158.32 390 1159.64 390 1161 390C1157.99 397.197 1150.38 401.2 1143.45 404.043C1142.64 404.359 1141.83 404.675 1141 405C1137.96 406.225 1134.93 407.466 1131.92 408.758C1130.14 409.515 1128.34 410.23 1126.52 410.867C1118.72 414.12 1116.19 421.402 1113.01 428.684C1111.96 431.086 1110.86 433.463 1109.76 435.84C1109.02 437.434 1108.29 439.029 1107.56 440.625C1107.22 441.37 1106.88 442.116 1106.52 442.884C1104.73 446.926 1103.5 450.555 1103 455C1104.22 455.289 1105.43 455.577 1106.69 455.875C1109.92 456.678 1112.94 457.663 1116 459C1116 459.99 1116 460.98 1116 462C1110.36 464.441 1105.02 464.193 1099 464C1099.12 465.522 1099.24 467.042 1099.37 468.562C1099.44 469.409 1099.51 470.256 1099.59 471.129C1100.08 474.546 1101.02 477.689 1102 481C1102.88 484.326 1103.72 487.663 1104.56 491C1104.78 491.864 1105 492.727 1105.23 493.617C1106.18 497.405 1107.01 501.06 1107.53 504.938C1107.8 508.164 1107.8 508.164 1110 511C1110.26 513.695 1110.09 516.285 1110 519C1107.94 515.909 1106.94 513.254 1105.76 509.742C1105.55 509.126 1105.34 508.51 1105.13 507.875C1104.45 505.877 1103.79 503.876 1103.12 501.875C1102.9 501.197 1102.67 500.52 1102.44 499.821C1091.86 467.881 1091.86 467.881 1095.79 455.465C1096.18 454.242 1096.56 453.019 1096.95 451.76C1097.37 450.486 1097.78 449.212 1098.19 447.938C1098.57 446.703 1098.96 445.469 1099.36 444.197C1101.71 436.765 1104.24 429.419 1106.92 422.099C1108.21 418.405 1109.26 414.681 1110.23 410.891C1111 409 1111 409 1114 407C1115.82 406.346 1115.82 406.346 1117.84 405.781C1118.59 405.572 1119.34 405.363 1120.11 405.147C1120.9 404.934 1121.69 404.72 1122.5 404.5C1123.31 404.279 1124.11 404.059 1124.94 403.831C1132.22 401.875 1139.43 400 1147 400C1147 397.03 1147 394.06 1147 391C1147.66 391.33 1148.32 391.66 1149 392C1150.98 388.04 1152.96 384.08 1155 380Z" fill="#FCAE20"/>
<path d="M1212 606C1214.4 609.601 1214.22 611.412 1214.31 615.688C1214.62 621.113 1215.2 624.666 1218.55 628.961C1224.45 637.256 1225.5 646.133 1227 655.938C1227.26 657.552 1227.51 659.167 1227.77 660.781C1228.41 664.78 1229.03 668.782 1229.66 672.784C1230.34 677.165 1231.04 681.541 1231.75 685.918C1232.07 687.935 1232.39 689.953 1232.71 691.97C1232.85 692.879 1232.99 693.787 1233.14 694.723C1233.28 695.588 1233.41 696.453 1233.55 697.344C1234.19 701.109 1234.95 704.849 1235.72 708.588C1236.01 711.046 1235.76 712.666 1235 715C1234.01 715 1233.02 715 1232 715C1231.66 713.126 1231.33 711.251 1231 709.375C1230.81 708.331 1230.63 707.287 1230.44 706.211C1230.01 703.094 1229.92 700.141 1230 697C1229.34 697 1228.68 697 1228 697C1223 669.5 1223 669.5 1218 642C1216.91 642.431 1216.91 642.431 1215.79 642.872C1214.05 643.558 1212.32 644.244 1210.58 644.93C1208.05 645.927 1208.05 645.927 1205.94 647.125C1203.71 648.131 1202.18 648.206 1199.75 648.125C1198.51 648.084 1197.27 648.043 1196 648C1196 647.34 1196 646.68 1196 646C1198.19 644.492 1198.19 644.492 1201 642.875C1201.93 642.336 1202.86 641.797 1203.81 641.242C1204.53 640.832 1205.26 640.422 1206 640C1203.03 639.34 1200.06 638.68 1197 638C1197 634 1197 634 1198.39 632.246C1199.31 631.351 1199.31 631.351 1200.25 630.438C1203.94 626.468 1205.56 622.642 1207.18 617.516C1207.94 615.198 1208.85 613.146 1210 611C1210.66 611 1211.32 611 1212 611C1212 609.35 1212 607.7 1212 606Z" fill="#E95C0E"/>
<path d="M1124 460C1127.15 461.337 1128.68 462.544 1130.47 465.449C1130.9 466.133 1131.32 466.817 1131.76 467.521C1132.19 468.236 1132.62 468.951 1133.06 469.688C1133.5 470.383 1133.93 471.078 1134.38 471.795C1142.38 484.846 1142.38 484.846 1142 492C1138.57 496.178 1133.85 499.645 1129 502C1128.01 502 1127.02 502 1126 502C1126 502.66 1126 503.32 1126 504C1126.61 503.977 1127.23 503.954 1127.86 503.93C1128.67 503.912 1129.48 503.894 1130.31 503.875C1131.11 503.852 1131.91 503.829 1132.74 503.805C1135 504 1135 504 1138 506C1138.29 508.164 1138.29 508.164 1138.19 510.625C1138.16 511.442 1138.13 512.26 1138.11 513.102C1138.05 514.041 1138.05 514.041 1138 515C1134.7 516.102 1132.46 516.07 1129 515.875C1127.95 515.831 1126.9 515.787 1125.81 515.742C1123 515 1123 515 1121.37 513.057C1119.47 508.811 1119.43 504.959 1119.31 500.352C1119.28 499.421 1119.25 498.49 1119.22 497.531C1119.16 495.566 1119.11 493.601 1119.07 491.636C1119 488.641 1118.89 485.65 1118.77 482.656C1118.72 480.742 1118.67 478.828 1118.63 476.914C1118.59 476.025 1118.55 475.137 1118.51 474.221C1118.43 467.861 1119.85 464.826 1124 460Z" fill="#F9890D"/>
<path d="M1138 329C1140 332 1140 332 1140.87 334.875C1142.1 338.273 1143.72 340.231 1146 343C1148.54 347.331 1149.5 351.01 1150 356C1150.66 356 1151.32 356 1152 356C1152.1 361.786 1151.99 367.293 1151 373C1150.34 373 1149.68 373 1149 373C1148.98 373.996 1148.98 373.996 1148.96 375.012C1148.72 379.45 1148.43 382.325 1146 386.125C1141.99 388.631 1138.62 388.669 1134 388C1131.74 385.736 1132.61 380.36 1132.48 377.297C1131.97 373.788 1130.92 371.928 1129 369C1128.56 365.484 1128.52 363.723 1130.5 360.746C1132.37 357.329 1132.33 354.94 1132.37 351.062C1132.73 342.95 1134.88 336.478 1138 329Z" fill="#F98E19"/>
<path d="M1179 880C1179.66 880 1180.32 880 1181 880C1184.73 887.332 1188.09 894.754 1191.19 902.375C1193.47 907.887 1195.96 913.292 1198.5 918.688C1198.87 919.471 1199.24 920.255 1199.61 921.062C1201.49 925.015 1203.46 928.887 1205.59 932.707C1206.01 933.451 1206.42 934.195 1206.85 934.961C1207.8 936.639 1208.75 938.313 1209.71 939.984C1211.43 944.005 1212.07 947.938 1212.69 952.25C1212.81 953.09 1212.94 953.929 1213.07 954.794C1213.91 960.583 1214.29 966.146 1214 972C1210.88 970.438 1210.02 967.346 1208.56 964.312C1207.85 962.859 1207.14 961.406 1206.43 959.953C1206.04 959.162 1205.65 958.371 1205.26 957.557C1203.91 954.816 1202.54 952.087 1201.17 949.359C1200.68 948.399 1200.2 947.438 1199.7 946.448C1198.76 944.566 1197.81 942.685 1196.86 940.804C1188.81 924.757 1188.81 924.757 1187.94 919C1187.07 914.126 1185.62 909.668 1184 905C1178.25 888.355 1178.25 888.355 1179 880Z" fill="#FB7812"/>
<path d="M1089 792C1092.59 793.28 1094.59 795.488 1097.06 798.312C1097.85 799.205 1098.63 800.097 1099.44 801.016C1101.68 803.627 1103.9 806.256 1106.1 808.895C1106.56 809.445 1107.03 809.995 1107.5 810.562C1107.96 811.11 1108.42 811.658 1108.89 812.223C1112.99 817.087 1117.4 821.602 1122 826C1114.64 832.136 1114.64 832.136 1111.26 831.855C1107.93 830.594 1105.52 828.323 1102.88 826C1102.02 825.257 1102.02 825.257 1101.14 824.499C1099.42 823.006 1097.71 821.503 1096 820C1095.08 819.203 1094.16 818.407 1093.21 817.586C1088.28 813.263 1083.83 808.752 1079.59 803.75C1078.1 801.901 1078.1 801.901 1076 801C1076 800.34 1076 799.68 1076 799C1077.79 798.02 1079.58 797.041 1081.38 796.062C1082.37 795.517 1083.37 794.972 1084.4 794.41C1085.92 793.585 1087.45 792.774 1089 792Z" fill="#FB670D"/>
<path d="M1199 464C1202.86 465.538 1204.9 467.932 1207.56 471.062C1210.68 474.9 1210.68 474.9 1215 477C1210.96 487.992 1204.97 499.569 1197.28 508.406C1195.78 510.088 1195.78 510.088 1195 513C1194.34 513 1193.68 513 1193 513C1192.18 511.441 1191.37 509.878 1190.56 508.312C1190.11 507.442 1189.66 506.572 1189.19 505.676C1186.31 499.197 1187.49 495.12 1189.56 488.562C1189.83 487.682 1190.1 486.801 1190.38 485.894C1192.76 478.357 1195.66 471.158 1199 464Z" fill="#F8F5F2"/>
<path d="M1181 876C1181.66 876.33 1182.32 876.66 1183 877C1182.67 877.66 1182.34 878.32 1182 879C1182.28 881.008 1182.61 883.01 1183 885C1182.34 884.34 1181.68 883.68 1181 883C1181 882.01 1181 881.02 1181 880C1180.34 880 1179.68 880 1179 880C1179.78 887.023 1181 893.397 1183.56 900C1186.12 906.685 1186.87 912.877 1187 920C1176.59 920.896 1176.59 920.896 1173.12 918.945C1169.6 915.069 1169.26 910.98 1169 906C1170.32 906 1171.64 906 1173 906C1172.29 905.685 1171.58 905.371 1170.85 905.047C1169.93 904.619 1169.01 904.191 1168.06 903.75C1167.15 903.332 1166.23 902.915 1165.29 902.484C1163 901 1163 901 1162.18 898.828C1162.12 898.225 1162.06 897.622 1162 897C1160.35 896.67 1158.7 896.34 1157 896C1158.32 892.051 1160.79 890.859 1164.12 888.688C1169.05 885.391 1173.57 881.949 1178 878C1178.99 877.34 1179.98 876.68 1181 876Z" fill="#D9531C"/>
<path d="M1127 425C1127.33 425.66 1127.66 426.32 1128 427C1128.76 427.124 1129.53 427.248 1130.31 427.375C1133.76 428.176 1135 429.082 1137 432C1136.92 436.063 1136.09 438.814 1134.38 442.5C1132.74 446.667 1132.92 448.691 1134 453C1134.72 454.627 1135.43 456.252 1136.18 457.867C1138.05 462.725 1138.94 467.914 1140 473C1140.22 474.038 1140.44 475.075 1140.67 476.145C1142.26 484.112 1142.26 484.112 1141 488C1140.71 486.824 1140.42 485.649 1140.12 484.438C1138.5 479.513 1135.93 475.465 1133.06 471.188C1132.63 470.542 1132.2 469.896 1131.76 469.23C1129.42 465.823 1127.05 462.813 1124 460C1123.6 461.207 1123.6 461.207 1123.19 462.438C1122.6 463.706 1122.6 463.706 1122 465C1120.51 465.495 1120.51 465.495 1119 466C1118.01 465.34 1117.02 464.68 1116 464C1116.49 457.312 1117.87 451.922 1120.44 445.75C1120.75 444.974 1121.06 444.198 1121.38 443.398C1122.63 440.319 1123.89 437.251 1125.18 434.191C1126.3 431.184 1126.63 428.176 1127 425Z" fill="#EC580B"/>
<path d="M1111 462C1112.32 462 1113.64 462 1115 462C1115.08 469.705 1115.13 477.409 1115.16 485.114C1115.18 487.734 1115.2 490.354 1115.23 492.973C1115.26 496.744 1115.28 500.514 1115.29 504.285C1115.31 505.452 1115.32 506.619 1115.34 507.821C1115.34 514.008 1114.99 518.538 1112 524C1109.43 521.425 1109.69 520.137 1109.5 516.562C1109.29 512.703 1109.2 511.296 1107 508C1106.45 506.03 1106.45 506.03 1106.03 503.789C1105.88 502.962 1105.72 502.135 1105.55 501.282C1105.39 500.406 1105.23 499.529 1105.06 498.625C1104.71 496.819 1104.37 495.013 1104.02 493.207C1103.76 491.88 1103.76 491.88 1103.5 490.526C1102.47 481.595 1102.47 481.595 1099 474C1098.93 472.314 1098.92 470.625 1098.94 468.938C1098.95 468.018 1098.96 467.099 1098.96 466.152C1098.98 465.442 1098.99 464.732 1099 464C1099.78 463.939 1100.56 463.879 1101.37 463.816C1102.38 463.733 1103.39 463.649 1104.44 463.562C1105.45 463.481 1106.46 463.4 1107.5 463.316C1109.94 463.268 1109.94 463.268 1111 462Z" fill="#FA7C14"/>
<path d="M1182 347C1184.34 347.256 1186.68 347.593 1189 348C1190.4 350.801 1190.21 352.89 1190 356C1186.59 364.988 1179.96 372.586 1174 380C1166.35 379.08 1166.35 379.08 1163 376C1163.33 374.35 1163.66 372.7 1164 371C1164.66 371 1165.32 371 1166 371C1166.27 370.423 1166.54 369.845 1166.81 369.25C1168.03 366.944 1169.3 364.979 1171 363C1171.66 363 1172.32 363 1173 363C1173.26 362.295 1173.51 361.59 1173.77 360.863C1175.12 357.73 1176.77 355.043 1178.62 352.188C1179.57 350.724 1179.57 350.724 1180.54 349.23C1181.26 348.126 1181.26 348.126 1182 347Z" fill="#C11E0B"/>
<path d="M1123 464C1124.28 471.808 1124.11 479.614 1124.06 487.5C1124.06 488.909 1124.05 490.318 1124.05 491.727C1124.04 495.151 1124.02 498.576 1124 502C1124.66 502 1125.32 502 1126 502C1126 502.66 1126 503.32 1126 504C1126.62 503.977 1127.23 503.954 1127.86 503.93C1128.67 503.912 1129.48 503.894 1130.31 503.875C1131.11 503.852 1131.91 503.829 1132.74 503.805C1135 504 1135 504 1138 506C1138.29 508.164 1138.29 508.164 1138.19 510.625C1138.16 511.442 1138.13 512.26 1138.11 513.102C1138.05 514.041 1138.05 514.041 1138 515C1134.7 516.102 1132.46 516.07 1129 515.875C1127.95 515.831 1126.9 515.787 1125.81 515.742C1123 515 1123 515 1121.36 513.065C1119.45 508.771 1119.46 504.866 1119.38 500.211C1119.36 499.271 1119.33 498.33 1119.31 497.362C1119.26 495.38 1119.22 493.398 1119.18 491.416C1119.13 488.378 1119.04 485.342 1118.95 482.305C1118.9 480.378 1118.86 478.451 1118.82 476.523C1118.79 475.614 1118.76 474.705 1118.74 473.768C1118.73 472.923 1118.71 472.079 1118.7 471.208C1118.69 470.466 1118.67 469.724 1118.66 468.96C1119.05 466.708 1120.36 464 1123 464Z" fill="#FB8F19"/>
<path d="M1076 798C1078 799 1078 799 1078 799L1076 798ZM1076 799C1076 799.66 1076 800.32 1076 801C1076.58 801.237 1077.15 801.474 1077.75 801.719C1080.49 803.276 1082.03 805.095 1084.06 807.5C1089.87 814.105 1096.22 820.065 1103.14 825.488C1104.65 826.67 1104.65 826.67 1106.19 827.875C1107.11 828.574 1108.03 829.272 1108.98 829.992C1109.65 830.655 1110.31 831.317 1111 832C1111 836 1111 836 1108.5 838.75C1107.68 839.493 1106.85 840.235 1106 841C1105.72 840.501 1105.44 840.002 1105.14 839.488C1098.22 828.177 1088.02 819.392 1077.49 811.514C1074.77 809.467 1072.91 807.87 1071 805C1070.88 802.312 1070.88 802.312 1071 800C1073 799 1073 799 1076 799Z" fill="#FB841D"/>
<path d="M1210 425C1210.33 425 1210.66 425 1211 425C1211 425.632 1211.01 426.263 1211.01 426.914C1211.33 434.299 1213.46 440.121 1216.53 446.738C1217.9 449.786 1219 452.811 1220 456C1218.51 456.804 1218.51 456.804 1217 457.625C1216.01 458.409 1215.02 459.192 1214 460C1213.5 463.169 1213.5 463.169 1214 466C1209.69 465.746 1207.5 465.415 1204.12 462.625C1202 460 1202 460 1201 457C1201.71 454.553 1202.47 452.248 1203.38 449.875C1203.61 449.229 1203.84 448.583 1204.09 447.918C1205.84 443.158 1205.84 443.158 1207 442C1207.56 439.148 1208.08 436.304 1208.56 433.438C1208.7 432.631 1208.84 431.825 1208.98 430.994C1209.33 428.997 1209.66 426.998 1210 425Z" fill="#CA4C13"/>
<path d="M1214 479C1217.3 479.33 1220.6 479.66 1224 480C1222.7 481.392 1222.7 481.392 1221.38 482.812C1218.79 485.802 1216.97 488.791 1215.19 492.312C1210.67 500.923 1203.8 508.226 1196 514C1195.01 513.67 1194.02 513.34 1193 513C1193.66 513 1194.32 513 1195 513C1195.11 512.423 1195.21 511.845 1195.32 511.25C1196.11 508.652 1197.22 507.151 1198.88 505C1204.76 496.861 1209.26 487.834 1214 479Z" fill="#FA8414"/>
<path d="M1226 655C1226.33 655 1226.66 655 1227 655C1227.13 655.95 1227.26 656.901 1227.4 657.88C1228.01 662.317 1228.63 666.752 1229.25 671.188C1229.36 671.984 1229.47 672.78 1229.59 673.6C1231.07 684.116 1232.68 694.57 1234.92 704.956C1235.7 708.682 1236.11 711.356 1235 715C1234.01 715 1233.02 715 1232 715C1231.66 713.126 1231.33 711.251 1231 709.375C1230.81 708.331 1230.63 707.287 1230.44 706.211C1230.01 703.094 1229.92 700.141 1230 697C1229.34 697 1228.68 697 1228 697C1227.28 692.981 1226.57 688.961 1225.86 684.939C1225.62 683.574 1225.38 682.208 1225.14 680.843C1224.78 678.873 1224.44 676.901 1224.09 674.93C1223.88 673.746 1223.68 672.563 1223.46 671.343C1223.02 668.177 1222.92 665.19 1223 662C1223.99 661.67 1224.98 661.34 1226 661C1226 659.02 1226 657.04 1226 655Z" fill="#E3691C"/>
<path d="M1153.69 326.688C1154.64 326.659 1155.6 326.63 1156.58 326.6C1163.09 326.542 1168.43 327.461 1174 331C1174.5 331.99 1174.5 331.99 1175 333C1174.04 333.08 1173.08 333.161 1172.09 333.244C1168.54 333.544 1164.99 333.856 1161.44 334.172C1159.9 334.307 1158.36 334.439 1156.82 334.567C1154.61 334.753 1152.4 334.949 1150.2 335.149C1149.51 335.204 1148.82 335.259 1148.11 335.316C1144.12 335.622 1144.12 335.622 1141 338C1139.68 334.38 1139 331.904 1139 328C1143.86 326.61 1148.67 326.737 1153.69 326.688Z" fill="#F76C12"/>
<path d="M1099 445C1099.99 448.281 1100.09 451.195 1100.03 454.613C1100.02 455.697 1100 456.78 1099.99 457.896C1099.96 460.162 1099.92 462.428 1099.87 464.693C1099.81 470.56 1100.06 475.403 1102 481C1102.43 482.601 1102.85 484.205 1103.25 485.812C1103.47 486.661 1103.68 487.509 1103.9 488.383C1104.23 489.678 1104.23 489.678 1104.56 491C1104.78 491.864 1105.01 492.727 1105.23 493.617C1106.19 497.405 1107.01 501.06 1107.53 504.938C1107.81 508.164 1107.81 508.164 1110 511C1110.26 513.695 1110.09 516.285 1110 519C1107.94 515.909 1106.95 513.254 1105.76 509.742C1105.55 509.126 1105.34 508.51 1105.13 507.875C1104.45 505.877 1103.79 503.876 1103.13 501.875C1102.9 501.197 1102.67 500.52 1102.44 499.821C1091.83 467.795 1091.83 467.795 1096.5 453.062C1096.74 452.283 1096.98 451.504 1097.22 450.701C1097.81 448.798 1098.4 446.899 1099 445Z" fill="#FEAF21"/>
<path d="M1152 398C1152.33 398.66 1152.66 399.32 1153 400C1154.76 399.969 1154.76 399.969 1156.56 399.938C1160.47 399.931 1164.14 400.357 1168 401C1168 401.66 1168 402.32 1168 403C1163.71 404.299 1159.42 405.588 1155.12 406.875C1153.92 407.24 1152.72 407.605 1151.48 407.98C1141.94 410.83 1133 413.37 1123 413C1128.29 408.595 1134.57 406.098 1140.97 403.789C1146.91 401.586 1146.91 401.586 1152 398Z" fill="#F6740B"/>
<path d="M1181 876C1181.66 876.33 1182.32 876.66 1183 877C1182.67 877.66 1182.34 878.32 1182 879C1182.28 881.008 1182.61 883.01 1183 885C1182.34 884.34 1181.68 883.68 1181 883C1181 882.01 1181 881.02 1181 880C1180.34 880 1179.68 880 1179 880C1179.12 881.011 1179.25 882.021 1179.38 883.062C1178.89 888.121 1176.82 890.741 1173 894C1172.34 894 1171.68 894 1171 894C1170.71 894.763 1170.42 895.526 1170.12 896.312C1169 899 1169 899 1167 902C1165.68 901.67 1164.36 901.34 1163 901C1162.67 899.68 1162.34 898.36 1162 897C1160.35 896.67 1158.7 896.34 1157 896C1158.32 892.051 1160.79 890.859 1164.12 888.688C1169.05 885.391 1173.57 881.949 1178 878C1178.99 877.34 1179.98 876.68 1181 876Z" fill="#D14A1A"/>
<path d="M1137 331C1139.48 333.48 1139.3 334.328 1139.31 337.75C1139.24 342.254 1138.21 345.045 1136 349C1135.66 351.71 1135.66 351.71 1136 354C1136.33 354.33 1136.66 354.66 1137 355C1137.13 358.5 1137.13 358.5 1137 362C1136.67 362.33 1136.34 362.66 1136 363C1135.84 364.852 1135.75 366.709 1135.68 368.566C1135.64 369.691 1135.6 370.816 1135.56 371.975C1135.52 373.159 1135.48 374.343 1135.44 375.562C1135.37 377.344 1135.37 377.344 1135.31 379.162C1135.2 382.108 1135.1 385.054 1135 388C1134.34 387.67 1133.68 387.34 1133 387C1132.64 383.765 1132.56 380.549 1132.44 377.297C1131.97 373.767 1130.93 371.938 1129 369C1128.56 365.489 1128.52 363.726 1130.5 360.754C1132.38 357.312 1132.37 354.842 1132.44 350.938C1132.76 343.717 1134.32 337.684 1137 331Z" fill="#FDC539"/>
<path d="M1218 923C1218.66 923.99 1219.32 924.98 1220 926C1222.46 927.421 1222.46 927.421 1225.31 928.625C1226.26 929.05 1227.2 929.476 1228.18 929.914C1230.8 930.922 1233.24 931.547 1236 932C1236 932.66 1236 933.32 1236 934C1236.66 934.083 1237.32 934.165 1238 934.25C1241.25 935.064 1243.81 936.353 1246.77 937.895C1249.84 939.417 1253.01 940.644 1256.21 941.875C1259.37 943.149 1262.47 944.536 1265.57 945.925C1269.57 947.693 1273.6 949.376 1277.62 951.062C1283.09 953.355 1288.55 955.657 1294 958C1293.01 958.99 1293.01 958.99 1292 960C1291.11 959.613 1290.21 959.227 1289.29 958.828C1288.08 958.307 1286.87 957.787 1285.62 957.25C1284.44 956.74 1283.26 956.229 1282.04 955.703C1279.1 954.451 1276.14 953.253 1273.18 952.074C1267.93 949.988 1262.74 947.791 1257.56 945.562C1256.65 945.171 1255.74 944.779 1254.8 944.375C1248.49 941.663 1242.22 938.899 1236 936C1236.33 936.99 1236.66 937.98 1237 939C1236.34 939 1235.68 939 1235 939C1234.46 938.423 1233.93 937.845 1233.38 937.25C1230.28 934.314 1226.85 932.759 1223 931C1223 930.34 1223 929.68 1223 929C1220.69 929 1218.38 929 1216 929C1215.34 927.35 1214.68 925.7 1214 924C1216 923 1216 923 1218 923Z" fill="#DA581A"/>
<path d="M1179 880C1179.66 880 1180.32 880 1181 880C1183.85 885.597 1186.51 891.234 1189 897C1189.44 898.011 1189.88 899.021 1190.33 900.062C1190.78 901.114 1191.23 902.166 1191.69 903.25C1192.1 904.225 1192.52 905.199 1192.95 906.203C1193.93 908.81 1194.54 911.258 1195 914C1192.03 913.67 1189.06 913.34 1186 913C1185.83 912.273 1185.66 911.546 1185.48 910.797C1184.17 905.351 1182.72 900.082 1180.81 894.812C1179.01 889.616 1178.64 885.47 1179 880Z" fill="#F16F13"/>
<path d="M1315 986C1323.14 994.055 1330.75 1002.52 1337.92 1011.45C1340.44 1014.54 1343.09 1017.5 1345.79 1020.44C1347 1022 1347 1022 1347 1024C1344.32 1024.41 1344.32 1024.41 1341 1024C1338.94 1021.8 1337.44 1019.86 1335.81 1017.38C1334.86 1016 1333.91 1014.62 1332.95 1013.25C1332.47 1012.54 1331.99 1011.84 1331.49 1011.11C1328.73 1007.19 1325.7 1003.48 1322.7 999.746C1315 990.075 1315 990.075 1315 986Z" fill="#D54B1B"/>
<path d="M1114 524C1114.25 524.557 1114.5 525.114 1114.75 525.688C1115.91 528.128 1115.91 528.128 1118.12 530C1121.07 534.712 1120.31 539.584 1120 545C1119.01 545.33 1118.02 545.66 1117 546C1115.68 545.34 1114.36 544.68 1113 544C1113 551.59 1113 559.18 1113 567C1112.67 567 1112.34 567 1112 567C1112 553.14 1112 539.28 1112 525C1112.66 524.67 1113.32 524.34 1114 524Z" fill="#FA9F28"/>
<path d="M1158 904C1158.99 904 1159.98 904 1161 904C1161 904.66 1161 905.32 1161 906C1162.18 905.691 1162.18 905.691 1163.38 905.375C1164.67 905.189 1164.67 905.189 1166 905C1168 907 1168 907 1168 911C1167.01 911 1166.02 911 1165 911C1165 912.32 1165 913.64 1165 915C1164.34 915 1163.68 915 1163 915C1163 915.66 1163 916.32 1163 917C1162.34 917 1161.68 917 1161 917C1160.73 917.639 1160.46 918.279 1160.19 918.938C1159 921 1159 921 1156 922C1155.31 920.188 1155.31 920.188 1155 918C1156.6 915.773 1158.28 914.843 1160.69 913.5C1161.45 913.005 1162.21 912.51 1163 912C1163 911.01 1163 910.02 1163 909C1162.29 909.349 1161.57 909.699 1160.84 910.059C1155.5 912.596 1150.92 914.605 1145 915C1146.32 911.041 1147.84 910.781 1151.5 908.938C1155.46 907.197 1155.46 907.197 1158 904Z" fill="#F77C20"/>
<path d="M1086 722C1087.98 722.99 1087.98 722.99 1090 724C1090.03 728.292 1090.05 732.583 1090.06 736.875C1090.07 738.098 1090.08 739.322 1090.09 740.582C1090.09 741.749 1090.09 742.915 1090.1 744.117C1090.1 745.196 1090.11 746.275 1090.11 747.386C1090 750 1090 750 1089 752C1089.66 752 1090.32 752 1091 752C1091 752.66 1091 753.32 1091 754C1088.53 754.495 1088.53 754.495 1086 755C1086 744.11 1086 733.22 1086 722Z" fill="#FCB52E"/>
<path d="M1123 464C1123.92 470.299 1124.19 476.449 1124.19 482.812C1124.19 483.781 1124.19 484.75 1124.19 485.749C1124.14 492.327 1123.71 498.616 1122 505C1121.67 505 1121.34 505 1121 505C1120.64 499.644 1120.3 494.288 1119.98 488.929C1119.87 487.106 1119.75 485.284 1119.63 483.462C1119.45 480.844 1119.3 478.225 1119.14 475.605C1119.08 474.79 1119.03 473.974 1118.96 473.134C1118.66 467.406 1118.66 467.406 1120.45 465.261C1122 464 1122 464 1123 464Z" fill="#FCF3E5"/>
<path d="M1155 380C1155.66 380 1156.32 380 1157 380C1157 383.3 1157 386.6 1157 390C1158.32 390 1159.64 390 1161 390C1159.53 394.412 1155.95 396.851 1152 399C1151.01 399 1150.02 399 1149 399C1147.92 395.114 1147.85 393.35 1149.43 389.57C1150.09 388.433 1150.76 387.296 1151.44 386.125C1151.78 385.532 1152.11 384.939 1152.46 384.328C1153.29 382.877 1154.14 381.437 1155 380Z" fill="#FDA71A"/>
<path d="M1102 452C1102.33 452.99 1102.66 453.98 1103 455C1104.96 455.556 1106.93 456.101 1108.92 456.527C1111.4 457.092 1113.67 457.981 1116 459C1116 459.99 1116 460.98 1116 462C1110.36 464.441 1105.02 464.193 1099 464C1098.65 459.123 1099.58 456.229 1102 452Z" fill="#FB941B"/>
<path d="M1395 781C1399.66 781.614 1404.17 782.482 1408.75 783.5C1420.64 785.947 1432.91 785.76 1445 786C1445 786.33 1445 786.66 1445 787C1434.44 787 1423.88 787 1413 787C1413 787.66 1413 788.32 1413 789C1410.36 789.33 1407.72 789.66 1405 790C1405 788.02 1405 786.04 1405 784C1403.91 784.062 1402.81 784.124 1401.69 784.188C1398 784 1398 784 1396.06 782.5C1395.54 781.757 1395.54 781.757 1395 781Z" fill="#C25945"/>
<path d="M1127 890C1127.33 890 1127.66 890 1128 890C1129.13 896.684 1130.14 903.386 1130.87 910.125C1131 911.179 1131.12 912.234 1131.24 913.32C1131.16 914.205 1131.08 915.089 1131 916C1129.69 917.036 1128.36 918.036 1127 919C1126.3 921.494 1126.3 921.494 1126.25 924.188C1126.19 925.089 1126.14 925.99 1126.08 926.918C1126.05 927.605 1126.03 928.292 1126 929C1125.67 929 1125.34 929 1125 929C1124.84 920.392 1125.34 911.893 1126 903.312C1126.1 902.027 1126.19 900.741 1126.29 899.416C1126.52 896.277 1126.76 893.138 1127 890Z" fill="#FB9A45"/>
<path d="M1129 422C1132.6 423.512 1134.81 425.637 1137.5 428.438C1140.2 431.239 1142.82 433.754 1146 436C1144.87 436.454 1143.73 436.907 1142.56 437.375C1138.95 438.571 1138.95 438.571 1138 441C1137.01 441 1136.02 441 1135 441C1135.12 440.397 1135.24 439.793 1135.36 439.172C1136.31 434.068 1136.31 434.068 1134.31 429.5C1132.13 428.082 1130.56 427.366 1128 427C1128.33 425.35 1128.66 423.7 1129 422Z" fill="#D84E0E"/>
<path d="M1154 897C1156.86 897.627 1159.28 898.522 1161.89 899.848C1162.95 900.384 1162.95 900.384 1164.04 900.932C1164.77 901.305 1165.5 901.678 1166.25 902.062C1167 902.44 1167.74 902.817 1168.51 903.205C1170.34 904.133 1172.17 905.066 1174 906C1173.01 906.33 1172.02 906.66 1171 907C1170.34 906.67 1169.68 906.34 1169 906C1169.14 907.196 1169.29 908.393 1169.44 909.625C1169.47 912.502 1169.31 913.63 1167.44 915.867C1165.68 917.348 1163.91 918.715 1162 920C1161.67 919.01 1161.34 918.02 1161 917C1161.66 917 1162.32 917 1163 917C1163 916.34 1163 915.68 1163 915C1163.66 915 1164.32 915 1165 915C1165 913.68 1165 912.36 1165 911C1165.99 911 1166.98 911 1168 911C1167.34 909.35 1166.68 907.7 1166 906C1164.35 906 1162.7 906 1161 906C1161.66 905.01 1162.32 904.02 1163 903C1162.07 902.752 1161.14 902.505 1160.19 902.25C1156.84 900.935 1155.81 900.02 1154 897Z" fill="#E4751D"/>
<path d="M1155 376C1156 379 1156 379 1154.57 382.355C1153.91 383.638 1153.24 384.915 1152.56 386.188C1152.22 386.842 1151.89 387.496 1151.54 388.17C1150.7 389.785 1149.85 391.393 1149 393C1147.02 391.35 1145.04 389.7 1143 388C1144.31 384.065 1146.33 382.873 1149.56 380.312C1150.57 379.504 1151.59 378.696 1152.63 377.863C1153.41 377.248 1154.19 376.634 1155 376Z" fill="#EE5812"/>
<path d="M1199 458C1202.16 459.37 1202.99 459.989 1205 463C1204.34 463 1203.68 463 1203 463C1202.67 463.99 1202.34 464.98 1202 466C1201.01 465.34 1200.02 464.68 1199 464C1198.9 464.681 1198.79 465.361 1198.69 466.062C1197.85 469.629 1196.51 472.662 1195 476C1193.68 476 1192.36 476 1191 476C1192.29 469.031 1195.15 463.911 1199 458Z" fill="#E66116"/>
<path d="M1099 445C1100.78 450.575 1099.64 456.454 1099.19 462.188C1099.1 463.401 1099.02 464.615 1098.94 465.865C1098.8 467.593 1098.8 467.593 1098.67 469.355C1098.59 470.414 1098.51 471.473 1098.43 472.563C1098.29 473.367 1098.14 474.171 1098 475C1097.34 475.33 1096.68 475.66 1096 476C1093.29 467.715 1093.89 461.288 1096.5 453.062C1096.74 452.283 1096.98 451.504 1097.22 450.701C1097.81 448.798 1098.4 446.899 1099 445Z" fill="#FDBC37"/>
<path d="M1145 507C1146.42 506.973 1147.83 506.953 1149.25 506.938C1150.43 506.92 1150.43 506.92 1151.64 506.902C1154 507 1154 507 1155.94 507.5C1158.58 508.141 1161.03 508.095 1163.75 508.062C1164.73 508.053 1165.72 508.044 1166.73 508.035C1167.48 508.024 1168.23 508.012 1169 508C1169.33 510.97 1169.66 513.94 1170 517C1169.67 515.68 1169.34 514.36 1169 513C1168.36 512.974 1167.71 512.948 1167.05 512.922C1159.27 512.433 1152.36 510.516 1145 508C1145 507.67 1145 507.34 1145 507Z" fill="#D95011"/>
<path d="M1319.81 956.688C1323 957 1323 957 1325.44 958.75C1327 961 1327 961 1326.75 963.25C1326.5 963.827 1326.25 964.405 1326 965C1320.25 966.125 1320.25 966.125 1318 965C1317.27 962.686 1316.6 960.352 1316 958C1317 957 1317 957 1319.81 956.688Z" fill="#EA431E"/>
<path d="M1135 497C1135.66 497.33 1136.32 497.66 1137 498C1137 498.99 1137 499.98 1137 501C1137.66 501.66 1138.32 502.32 1139 503C1139.2 506.258 1139.2 506.258 1139.12 510.125C1139.11 511.406 1139.09 512.688 1139.07 514.008C1139.05 514.995 1139.02 515.983 1139 517C1138.01 517.33 1137.02 517.66 1136 518C1133.81 516.562 1133.81 516.562 1132 515C1133.65 515 1135.3 515 1137 515C1137.33 512.03 1137.66 509.06 1138 506C1132.06 505.01 1132.06 505.01 1126 504C1126 503.34 1126 502.68 1126 502C1126.57 501.723 1127.13 501.446 1127.71 501.16C1128.45 500.798 1129.18 500.436 1129.94 500.062C1131.03 499.523 1131.03 499.523 1132.15 498.973C1133.96 498.136 1133.96 498.136 1135 497Z" fill="#F57211"/>
<path d="M1187 914C1187.33 914 1187.66 914 1188 914C1188.12 914.641 1188.24 915.281 1188.37 915.941C1189.36 921.049 1190.49 926.023 1192 931C1190.93 931.144 1189.86 931.289 1188.75 931.438C1186.08 931.837 1183.59 932.276 1181 933C1181.38 931.062 1181.38 931.062 1182 929C1182.66 928.67 1183.32 928.34 1184 928C1184.47 926.105 1184.47 926.105 1184.62 923.938C1184.75 922.638 1184.87 921.339 1185 920C1185.66 920 1186.32 920 1187 920C1187 918.02 1187 916.04 1187 914Z" fill="#EB611D"/>
<path d="M1120 483C1120.33 483 1120.66 483 1121 483C1121.33 488.94 1121.66 494.88 1122 501C1122.33 498.69 1122.66 496.38 1123 494C1123.33 494 1123.66 494 1124 494C1124 500.27 1124 506.54 1124 513C1123.01 513 1122.02 513 1121 513C1119.9 509.703 1119.89 507.27 1119.9 503.801C1119.91 502.592 1119.91 501.384 1119.91 500.139C1119.92 498.876 1119.93 497.613 1119.94 496.312C1119.94 494.401 1119.94 494.401 1119.95 492.451C1119.96 489.301 1119.98 486.15 1120 483Z" fill="#F99D44"/>
<path d="M1263 945C1267.82 946.9 1272.6 948.922 1277.38 950.938C1278.2 951.285 1279.02 951.632 1279.88 951.99C1284.59 953.977 1289.3 955.979 1294 958C1293.34 958.66 1292.68 959.32 1292 960C1291.11 959.613 1290.21 959.227 1289.29 958.828C1283.72 956.427 1278.15 954.032 1272.5 951.812C1268.89 950.387 1265.44 948.809 1262 947C1262.33 946.34 1262.66 945.68 1263 945Z" fill="#D7541E"/>
<path d="M1164 908C1164.33 910.31 1164.66 912.62 1165 915C1164.34 915 1163.68 915 1163 915C1163 915.66 1163 916.32 1163 917C1162.34 917 1161.68 917 1161 917C1160.73 917.64 1160.46 918.279 1160.19 918.938C1159 921 1159 921 1156 922C1155.31 920.188 1155.31 920.188 1155 918C1156.6 915.773 1158.28 914.843 1160.69 913.5C1161.45 913.005 1162.21 912.51 1163 912C1163 911.01 1163 910.02 1163 909C1161.64 909.774 1161.64 909.774 1160.25 910.563C1157 912 1157 912 1154.62 911.688C1153.82 911.347 1153.82 911.347 1153 911C1156.51 907.626 1159.26 907.727 1164 908Z" fill="#FB8F21"/>
<path d="M1051 747C1058.61 753.312 1066.02 760.092 1072 768C1072 768.66 1072 769.32 1072 770C1068.67 768.89 1067.99 768.075 1065.81 765.438C1062.65 761.702 1059.31 758.26 1055.8 754.859C1051 749.896 1051 749.896 1051 747Z" fill="#FD921B"/>
<path d="M1147 391C1149 395 1149 395 1149 399C1149.66 399.33 1150.32 399.66 1151 400C1142.33 405.043 1142.33 405.043 1137.12 404.875C1136.09 404.586 1135.06 404.298 1134 404C1132.67 403.663 1131.33 403.329 1130 403C1132.08 402.495 1134.17 401.996 1136.25 401.5C1137.41 401.222 1138.57 400.943 1139.77 400.656C1143 400 1143 400 1147 400C1147 397.03 1147 394.06 1147 391Z" fill="#FAAC2A"/>
<path d="M1218 923C1218.66 923.99 1219.32 924.98 1220 926C1222.5 927.383 1222.5 927.383 1225.38 928.562C1228.63 929.97 1231.85 931.379 1235 933C1234.67 933.66 1234.34 934.32 1234 935C1230.37 933.68 1226.74 932.36 1223 931C1223 930.34 1223 929.68 1223 929C1220.69 929 1218.38 929 1216 929C1215.34 927.35 1214.68 925.7 1214 924C1216 923 1216 923 1218 923Z" fill="#E2601A"/>
<path d="M1102 496C1103.32 496.33 1104.64 496.66 1106 497C1106.12 497.759 1106.24 498.519 1106.37 499.301C1106.53 500.295 1106.7 501.289 1106.88 502.312C1107.12 503.792 1107.12 503.792 1107.37 505.301C1107.88 508.201 1107.88 508.201 1110 511C1110.26 513.695 1110.09 516.285 1110 519C1108.18 516.265 1107.4 514.425 1106.49 511.332C1106.23 510.439 1105.96 509.547 1105.69 508.627C1105.42 507.698 1105.15 506.769 1104.88 505.812C1104.46 504.402 1104.46 504.402 1104.04 502.963C1103.35 500.643 1102.67 498.322 1102 496Z" fill="#FDAA2E"/>
<path d="M1415 787C1417.64 787 1420.28 787 1423 787C1423 789.31 1423 791.62 1423 794C1419.25 795.125 1419.25 795.125 1417 794C1417 792.02 1417 790.04 1417 788C1416.34 787.67 1415.68 787.34 1415 787Z" fill="#B4401B"/>
<path d="M1467 837C1475.51 836.687 1483.6 837.627 1492 839C1491.67 839.66 1491.34 840.32 1491 841C1482.9 840.454 1474.99 839.459 1467 838C1467 837.67 1467 837.34 1467 837Z" fill="#DC440A"/>
<path d="M1127 890C1127.33 890 1127.66 890 1128 890C1130.96 905.605 1130.96 905.605 1129 913C1128.34 913.33 1127.68 913.66 1127 914C1127 906.08 1127 898.16 1127 890Z" fill="#FB8231"/>
<path d="M1031 727C1034.16 728.426 1036.58 730.163 1039.19 732.438C1040.23 733.333 1040.23 733.333 1041.29 734.246C1043 736 1043 736 1044 739C1044.66 739 1045.32 739 1046 739C1046.33 740.32 1046.66 741.64 1047 743C1043.66 741.888 1042.9 741.005 1040.69 738.375C1040.08 737.661 1039.48 736.947 1038.85 736.211C1037.94 735.117 1037.94 735.117 1037 734C1035.86 732.666 1034.71 731.332 1033.56 730C1032.72 729.01 1031.87 728.02 1031 727Z" fill="#FDC42F"/>
<path d="M1218 1000C1218.33 1000 1218.66 1000 1219 1000C1220.12 1005.62 1220.12 1005.62 1219 1009C1218.01 1009 1217.02 1009 1216 1009C1215.67 1009.66 1215.34 1010.32 1215 1011C1214.01 1008.69 1213.02 1006.38 1212 1004C1213.21 1003.57 1213.21 1003.57 1214.44 1003.12C1217.13 1002.27 1217.13 1002.27 1218 1000Z" fill="#D36231"/>
<path d="M1139 404C1139 404.66 1139 405.32 1139 406C1137.38 406.697 1135.75 407.382 1134.12 408.063C1133.22 408.445 1132.32 408.828 1131.38 409.223C1129 410 1129 410 1127 409C1128.02 406.22 1128.7 405.172 1131.31 403.688C1134.29 402.925 1136.07 403.163 1139 404Z" fill="#FB9E12"/>
<path d="M1155 380C1155.66 380 1156.32 380 1157 380C1157 383.3 1157 386.6 1157 390C1158.32 390.33 1159.64 390.66 1161 391C1158.36 391 1155.72 391 1153 391C1152.71 383.571 1152.71 383.571 1155 380Z" fill="#FA8510"/>
<path d="M1134 344C1134.66 344 1135.32 344 1136 344C1135.99 344.71 1135.98 345.421 1135.96 346.152C1135.96 347.071 1135.95 347.991 1135.94 348.938C1135.93 349.854 1135.91 350.771 1135.9 351.715C1135.74 353.966 1135.74 353.966 1137 355C1137.04 357.333 1137.04 359.667 1137 362C1133.59 357.847 1132.86 354.628 1132.88 349.312C1132.87 348.525 1132.87 347.737 1132.87 346.926C1133 345 1133 345 1134 344Z" fill="#FDBA2A"/>
<path d="M1168.56 922.938C1169.77 922.968 1169.77 922.968 1171 923C1172.12 926.75 1172.12 926.75 1171 929C1169.35 929 1167.7 929 1166 929C1165.62 927.344 1165.29 925.675 1165 924C1166 923 1166 923 1168.56 922.938Z" fill="#F6821E"/>
<path d="M1180 419C1181.77 422.023 1182.2 423.862 1181.76 427.328C1181.66 428.127 1181.56 428.927 1181.47 429.75C1181.35 430.575 1181.24 431.4 1181.13 432.25C1180.97 433.511 1180.97 433.511 1180.81 434.797C1180.55 436.866 1180.28 438.933 1180 441C1179.67 441 1179.34 441 1179 441C1178.97 437.521 1178.95 434.042 1178.94 430.562C1178.93 429.569 1178.92 428.576 1178.91 427.553C1178.91 426.608 1178.91 425.664 1178.9 424.691C1178.9 423.817 1178.89 422.942 1178.89 422.041C1179 420 1179 420 1180 419Z" fill="#CA4515"/>
<path d="M1244 918C1245.32 918.33 1246.64 918.66 1248 919C1248.33 920.65 1248.66 922.3 1249 924C1247.19 924.688 1247.19 924.688 1245 925C1243.25 923.562 1243.25 923.562 1242 922C1242.66 920.68 1243.32 919.36 1244 918Z" fill="#D46026"/>
<path d="M1245 938C1251.42 939.736 1257.14 941.852 1263 945C1260.03 946.269 1258.91 945.969 1255.8 944.855C1254.65 944.305 1253.5 943.755 1252.31 943.188C1250.57 942.373 1250.57 942.373 1248.8 941.543C1246 940 1246 940 1245 938Z" fill="#DF601F"/>
<path d="M1343 927C1344.65 927.33 1346.3 927.66 1348 928C1348.33 929.32 1348.66 930.64 1349 932C1346.62 932.625 1346.62 932.625 1344 933C1343.34 932.34 1342.68 931.68 1342 931C1342.38 928.875 1342.38 928.875 1343 927Z" fill="#D4521A"/>
<path d="M1197 916C1201.89 917.468 1206.63 919.33 1211 922C1211.33 922.66 1211.66 923.32 1212 924C1211.23 923.783 1210.46 923.567 1209.66 923.344C1208.66 923.065 1207.66 922.787 1206.62 922.5C1205.63 922.222 1204.63 921.943 1203.6 921.656C1201.12 920.918 1201.12 920.918 1199 921C1198.34 919.35 1197.68 917.7 1197 916Z" fill="#DF5A1F"/>
<path d="M1168 908C1168.33 908 1168.66 908 1169 908C1169.44 910.625 1169.44 910.625 1169 914C1166.91 916.331 1164.54 918.173 1162 920C1161.67 919.01 1161.34 918.02 1161 917C1161.66 917 1162.32 917 1163 917C1163 916.34 1163 915.68 1163 915C1163.66 915 1164.32 915 1165 915C1165 913.68 1165 912.36 1165 911C1165.99 911 1166.98 911 1168 911C1168 910.01 1168 909.02 1168 908Z" fill="#F57918"/>
<path d="M1185 920C1185.66 920 1186.32 920 1187 920C1187.08 921.791 1187.14 923.583 1187.19 925.375C1187.22 926.373 1187.26 927.37 1187.29 928.398C1187.2 929.257 1187.1 930.115 1187 931C1186.01 931.66 1185.02 932.32 1184 933C1183.01 932.67 1182.02 932.34 1181 932C1181.33 931.01 1181.66 930.02 1182 929C1182.66 928.67 1183.32 928.34 1184 928C1184.47 926.105 1184.47 926.105 1184.62 923.938C1184.75 922.638 1184.87 921.339 1185 920Z" fill="#F57526"/>
<path d="M1168 907C1168 908.32 1168 909.64 1168 911C1166.68 910.67 1165.36 910.34 1164 910C1164 909.34 1164 908.68 1164 908C1162.02 908 1160.04 908 1158 908C1158.33 907.34 1158.66 906.68 1159 906C1162.73 904.789 1164.68 904.91 1168 907Z" fill="#F48B1D"/>
<path d="M1449 887C1450.65 887.33 1452.3 887.66 1454 888C1453.62 890.438 1453.62 890.438 1453 893C1452.01 893.495 1452.01 893.495 1451 894C1449.44 892.75 1449.44 892.75 1448 891C1448.31 888.812 1448.31 888.812 1449 887Z" fill="#DE3D0B"/>
<path d="M1124 460C1124.66 460 1125.32 460 1126 460C1125.67 464.29 1125.34 468.58 1125 473C1124.34 472.67 1123.68 472.34 1123 472C1122.52 470.039 1122.52 470.039 1122.25 467.625C1122.15 466.834 1122.05 466.042 1121.95 465.227C1122 463 1122 463 1124 460Z" fill="#FB9516"/>
<path d="M1505 912C1506.65 912.33 1508.3 912.66 1510 913C1509.67 914.65 1509.34 916.3 1509 918C1507.35 917.67 1505.7 917.34 1504 917C1504.33 915.35 1504.66 913.7 1505 912Z" fill="#D83E09"/>
<path d="M1212 958C1213.91 961.212 1214.22 963.539 1214.12 967.25C1214.11 968.142 1214.09 969.034 1214.07 969.953C1214.05 970.629 1214.02 971.304 1214 972C1213.34 971.67 1212.68 971.34 1212 971C1210.8 966.425 1211.17 962.62 1212 958Z" fill="#F76D0E"/>
<path d="M1198 718C1203.94 718.33 1209.88 718.66 1216 719C1216 719.66 1216 720.32 1216 721C1213.56 721.081 1211.13 721.14 1208.69 721.188C1207.65 721.225 1207.65 721.225 1206.6 721.264C1204.57 721.293 1204.57 721.293 1201 721C1200.01 720.01 1199.02 719.02 1198 718Z" fill="#ED954F"/>
<path d="M1156 571C1156.66 571.33 1157.32 571.66 1158 572C1158.62 575.062 1158.62 575.062 1159 578C1158.01 578.495 1158.01 578.495 1157 579C1156.34 582.029 1156.34 582.029 1156 585C1155.67 585 1155.34 585 1155 585C1154.92 580.167 1155.05 575.763 1156 571Z" fill="#F4CCB3"/>
<path d="M1122 464C1122.33 464.99 1122.66 465.98 1123 467C1122.67 467.33 1122.34 467.66 1122 468C1121.76 470.526 1121.58 473.031 1121.44 475.562C1121.39 476.273 1121.35 476.984 1121.31 477.717C1121.2 479.478 1121.1 481.239 1121 483C1120.67 483 1120.34 483 1120 483C1119.75 480.396 1119.53 477.794 1119.31 475.188C1119.2 474.081 1119.2 474.081 1119.09 472.951C1118.67 467.45 1118.67 467.45 1120.48 464.988C1120.98 464.662 1121.48 464.336 1122 464Z" fill="#FBDBCB"/>
<path d="M1099 445C1100.03 448.269 1099.96 450.86 1099.56 454.25C1099.46 455.142 1099.36 456.034 1099.25 456.953C1099.13 457.966 1099.13 457.966 1099 459C1098.01 459 1097.02 459 1096 459C1096.6 454.131 1097.57 449.672 1099 445Z" fill="#FABF4E"/>
<path d="M1185 401C1186.44 401.764 1187.88 402.537 1189.31 403.312C1190.11 403.742 1190.91 404.171 1191.74 404.613C1193.84 405.901 1195.35 407.184 1197 409C1194.03 408.505 1194.03 408.505 1191 408C1190.67 407.01 1190.34 406.02 1190 405C1189.34 404.835 1188.68 404.67 1188 404.5C1187.34 404.335 1186.68 404.17 1186 404C1185.67 403.01 1185.34 402.02 1185 401Z" fill="#EA6E28"/>
<path d="M1232 698C1234.5 700.495 1234.36 701.673 1234.62 705.125C1234.7 706.035 1234.77 706.945 1234.85 707.883C1234.93 708.931 1234.93 708.931 1235 710C1234.34 708.68 1233.68 707.36 1233 706C1232.34 706 1231.68 706 1231 706C1231.33 703.36 1231.66 700.72 1232 698Z" fill="#E46F2D"/>
<path d="M1197 507C1197.99 507 1198.98 507 1200 507C1199.69 509.375 1199.69 509.375 1199 512C1198.01 512.66 1197.02 513.32 1196 514C1195.01 513.67 1194.02 513.34 1193 513C1193.66 513 1194.32 513 1195 513C1195.22 512.072 1195.22 512.072 1195.44 511.125C1196 509 1196 509 1197 507Z" fill="#FA9023"/>
<path d="M1507 921C1508.65 921 1510.3 921 1512 921C1512.99 923.31 1513.98 925.62 1515 928C1514.01 928 1513.02 928 1512 928C1512 926.35 1512 924.7 1512 923C1510.35 923.66 1508.7 924.32 1507 925C1507 923.68 1507 922.36 1507 921Z" fill="#C94711"/>
<path d="M1226 811C1229.95 810.82 1232.6 810.906 1236 813C1235.67 814.32 1235.34 815.64 1235 817C1232 815 1229 813 1226 811Z" fill="#DD5310"/>
<path d="M1172 525C1172.99 525 1173.98 525 1175 525C1175.19 528.312 1175.19 528.312 1175 532C1174.01 532.99 1173.02 533.98 1172 535C1172 531.7 1172 528.4 1172 525Z" fill="#C64815"/>
<path d="M1147 391C1149 395 1149 395 1149 399C1149.66 399.33 1150.32 399.66 1151 400C1150 401 1150 401 1146.44 401.062C1145.3 401.042 1144.17 401.021 1143 401C1144.32 400.67 1145.64 400.34 1147 400C1147 397.03 1147 394.06 1147 391Z" fill="#F8B23D"/>
<path d="M1464 932C1466.47 932.99 1466.47 932.99 1469 934C1468.67 934.99 1468.34 935.98 1468 937C1466.35 936.67 1464.7 936.34 1463 936C1463.33 934.68 1463.66 933.36 1464 932Z" fill="#B43527"/>
<path d="M1509 923C1509.99 923 1510.98 923 1512 923C1512 924.32 1512 925.64 1512 927C1508.37 926.67 1504.74 926.34 1501 926C1501 925.67 1501 925.34 1501 925C1502.13 924.856 1503.27 924.711 1504.44 924.562C1507.81 924.388 1507.81 924.388 1509 923Z" fill="#AF391B"/>
<path d="M1127 903C1127.99 903.495 1127.99 903.495 1129 904C1130.33 907.992 1129.82 910.263 1128 914C1127.67 914 1127.34 914 1127 914C1127 910.37 1127 906.74 1127 903Z" fill="#FD8F2D"/>
<path d="M1422 870C1423.94 870.312 1423.94 870.312 1426 871C1426.33 871.99 1426.66 872.98 1427 874C1426.01 874.66 1425.02 875.32 1424 876C1423.34 875.67 1422.68 875.34 1422 875C1422 873.35 1422 871.7 1422 870Z" fill="#D83C0F"/>
<path d="M1346 819C1348.97 819.495 1348.97 819.495 1352 820C1350 823 1350 823 1347.38 823.688C1346.2 823.842 1346.2 823.842 1345 824C1345.33 822.35 1345.66 820.7 1346 819Z" fill="#BE462C"/>
<path d="M1419 790C1420.98 790.495 1420.98 790.495 1423 791C1422.67 792.32 1422.34 793.64 1422 795C1420.68 794.67 1419.36 794.34 1418 794C1418.33 792.68 1418.66 791.36 1419 790Z" fill="#BE4E1B"/>
<path d="M1234 712C1236.16 715.233 1236.47 716.252 1236 720C1234.5 721.812 1234.5 721.812 1233 723C1232.86 715.571 1232.86 715.571 1234 712Z" fill="#E25C0E"/>
<path d="M1154 897C1157.67 897.706 1160.7 899.277 1164 901C1161.55 901.875 1160.37 902.129 1157.88 901.25C1156 900 1156 900 1154 897Z" fill="#F17D1A"/>
<path d="M1462 887C1462.99 887.66 1463.98 888.32 1465 889C1464.67 890.32 1464.34 891.64 1464 893C1462.68 892.34 1461.36 891.68 1460 891C1460 890.01 1460 889.02 1460 888C1460.66 887.67 1461.32 887.34 1462 887Z" fill="#E13D0C"/>
<path d="M1379 821C1380.32 821 1381.64 821 1383 821C1383 822.65 1383 824.3 1383 826C1381.68 825.67 1380.36 825.34 1379 825C1379 823.68 1379 822.36 1379 821Z" fill="#C6481E"/>
<path d="M1370 820C1370.66 820 1371.32 820 1372 820C1372.33 821.98 1372.66 823.96 1373 826C1371.68 825.67 1370.36 825.34 1369 825C1369.33 823.35 1369.66 821.7 1370 820Z" fill="#CC4C20"/>
<path d="M1218 923C1218.33 924.65 1218.66 926.3 1219 928C1218.01 928.33 1217.02 928.66 1216 929C1215.34 927.35 1214.68 925.7 1214 924C1216 923 1216 923 1218 923Z" fill="#F05615"/>
<path d="M1530 881C1531.32 881 1532.64 881 1534 881C1534.33 881.99 1534.66 882.98 1535 884C1534.01 884.66 1533.02 885.32 1532 886C1531.34 885.67 1530.68 885.34 1530 885C1530 883.68 1530 882.36 1530 881Z" fill="#D63910"/>
<path d="M1131 408C1131.66 408.33 1132.32 408.66 1133 409C1130.93 411.797 1129.86 412.027 1126.31 412.688C1125.22 412.791 1124.13 412.894 1123 413C1125.55 410.999 1127.98 409.208 1131 408Z" fill="#FA7F0E"/>
<path d="M1149 349C1149.33 349.66 1149.66 350.32 1150 351C1150.99 351 1151.98 351 1153 351C1152.67 352.65 1152.34 354.3 1152 356C1151.34 356 1150.68 356 1150 356C1149.67 353.69 1149.34 351.38 1149 349Z" fill="#F66410"/>
<path d="M1136 726C1136.99 726.33 1137.98 726.66 1139 727C1138.67 728.65 1138.34 730.3 1138 732C1137.01 731.01 1136.02 730.02 1135 729C1135.33 728.01 1135.66 727.02 1136 726Z" fill="#FD9C28"/>
<path d="M1135 497C1135.66 497.33 1136.32 497.66 1137 498C1137 501 1137 501 1135 504C1134.34 503.67 1133.68 503.34 1133 503C1133.88 498.125 1133.88 498.125 1135 497Z" fill="#EB640E"/>
</g>
<defs>
<clipPath id="clip0_9320_6">
<rect width="1536" height="1024" fill="white"/>
</clipPath>
</defs>
</svg>
