<svg width="670" height="175" viewBox="0 0 670 175" fill="none" xmlns="http://www.w3.org/2000/svg">
<path d="M112 51.9541C66 34.4541 0.5 28.9541 0.5 28.9541V173.954H529.5C529.5 173.954 724.749 174.363 653 157.954C581.251 141.545 352.278 126.456 293.5 113.954C234.722 101.452 158 69.4541 112 51.9541Z" fill="url(#paint0_linear_9316_24)" stroke="#FF7E0D"/>
<path d="M60.5 35.4541H70L60.5 25.9541H67.5L60.5 13.9541L65.5 15.9541L57.5 0.954102L47 15.9541L52.5 14.9541L45.5 25.9541H52.5L44.5 38.4541L57.5 36.4541V48.9541H60.5V35.4541Z" fill="url(#paint1_radial_9316_24)"/>
<path d="M60.5 34.9541C60.5 35.2874 60.5 35.6208 60.5 35.9541C61.1864 35.9541 61.8727 35.9541 62.5591 35.9541C64.6585 35.9541 66.7578 35.9541 68.8572 35.9541C69.2382 35.9541 69.6191 35.9541 70 35.9541H71.2071L70.3536 35.1005C67.1869 31.9339 64.0202 28.7672 60.8536 25.6005L60.5 26.4541C62.8333 26.4541 65.1667 26.4541 67.5 26.4541H68.3705L67.9319 25.7022C65.5986 21.7022 63.2652 17.7022 60.9319 13.7022L60.3143 14.4183C61.981 15.085 63.6476 15.7517 65.3143 16.4183L66.5854 16.9268L65.9412 15.7188C63.2745 10.7188 60.6078 5.71881 57.9412 0.718807L57.5577 -0.00021826L57.0904 0.66737C53.5904 5.66737 50.0904 10.6674 46.5904 15.6674L45.893 16.6636L47.0894 16.446C48.9228 16.1127 50.7561 15.7794 52.5894 15.446L52.0782 14.6857C49.7448 18.3523 47.4115 22.019 45.0782 25.6857L44.5892 26.4541H45.5C47.8333 26.4541 50.1667 26.4541 52.5 26.4541L52.0789 25.6846C49.4122 29.8512 46.7455 34.0179 44.0789 38.1846L43.4824 39.1165L44.576 38.9483C48.9094 38.2816 53.2427 37.615 57.576 36.9483L57 36.4541C57 40.6208 57 44.7874 57 48.9541V49.4541H57.5C58.5 49.4541 59.5 49.4541 60.5 49.4541H61V48.9541C61 47.2398 61 45.5256 61 43.8113C61 41.0256 61 38.2398 61 35.4541C60.6667 35.4541 60.3333 35.4541 60 35.4541C60 38.2398 60 41.0256 60 43.8113C60 45.5256 60 47.2398 60 48.9541L60.5 48.4541C59.5 48.4541 58.5 48.4541 57.5 48.4541L58 48.9541C58 44.7874 58 40.6208 58 36.4541V35.8713L57.424 35.9599C53.0906 36.6266 48.7573 37.2932 44.424 37.9599L44.9211 38.7236C47.5878 34.557 50.2545 30.3903 52.9211 26.2236L53.4136 25.4541H52.5C50.1667 25.4541 47.8333 25.4541 45.5 25.4541L45.9218 26.2225C48.2552 22.5559 50.5885 18.8892 52.9218 15.2225L53.5359 14.2576L52.4106 14.4622C50.5772 14.7955 48.7439 15.1288 46.9106 15.4622L47.4096 16.2408C50.9096 11.2408 54.4096 6.24083 57.9096 1.24083L57.0588 1.1894C59.7255 6.1894 62.3922 11.1894 65.0588 16.1894L65.6857 15.4899C64.019 14.8232 62.3524 14.1565 60.6857 13.4899L59.3352 12.9497L60.0681 14.206C62.4014 18.206 64.7348 22.206 67.0681 26.206L67.5 25.4541C65.1667 25.4541 62.8333 25.4541 60.5 25.4541H59.2929L60.1464 26.3077C63.3131 29.4743 66.4798 32.641 69.6464 35.8077L70 34.9541C69.6191 34.9541 69.2382 34.9541 68.8572 34.9541C66.7578 34.9541 64.6585 34.9541 62.5591 34.9541C61.8727 34.9541 61.1864 34.9541 60.5 34.9541ZM60.5 35.9541V34.9541H60V35.4541H61L60.5 35.9541Z" fill="#FF7E0D"/>
<path d="M73.5 39.4541H83L73.5 29.9541H80.5L73.5 17.9541L78.5 19.9541L70.5 4.9541L60 19.9541L65.5 18.9541L58.5 29.9541H65.5L57.5 42.4541L70.5 40.4541V52.9541H73.5V39.4541Z" fill="url(#paint2_radial_9316_24)"/>
<path d="M73.5 38.9541C73.5 39.2874 73.5 39.6208 73.5 39.9541C74.1864 39.9541 74.8727 39.9541 75.5591 39.9541C77.6585 39.9541 79.7578 39.9541 81.8572 39.9541C82.2382 39.9541 82.6191 39.9541 83 39.9541H84.2071L83.3536 39.1005C80.1869 35.9339 77.0202 32.7672 73.8536 29.6005L73.5 30.4541C75.8333 30.4541 78.1667 30.4541 80.5 30.4541H81.3705L80.9319 29.7022C78.5986 25.7022 76.2652 21.7022 73.9319 17.7022L73.3143 18.4183C74.981 19.085 76.6476 19.7517 78.3143 20.4183L79.5854 20.9268L78.9412 19.7188C76.2745 14.7188 73.6078 9.71881 70.9412 4.71881L70.5577 3.99978L70.0904 4.66737C66.5904 9.66737 63.0904 14.6674 59.5904 19.6674L58.893 20.6636L60.0894 20.446C61.9228 20.1127 63.7561 19.7794 65.5894 19.446L65.0782 18.6857C62.7448 22.3523 60.4115 26.019 58.0782 29.6857L57.5892 30.4541H58.5C60.8333 30.4541 63.1667 30.4541 65.5 30.4541L65.0789 29.6846C62.4122 33.8512 59.7455 38.0179 57.0789 42.1846L56.4824 43.1165L57.576 42.9483C61.9094 42.2816 66.2427 41.615 70.576 40.9483L70 40.4541C70 44.6208 70 48.7874 70 52.9541V53.4541H70.5C71.5 53.4541 72.5 53.4541 73.5 53.4541H74V52.9541C74 51.2398 74 49.5256 74 47.8113C74 45.0256 74 42.2398 74 39.4541C73.6667 39.4541 73.3333 39.4541 73 39.4541C73 42.2398 73 45.0256 73 47.8113C73 49.5256 73 51.2398 73 52.9541L73.5 52.4541C72.5 52.4541 71.5 52.4541 70.5 52.4541L71 52.9541C71 48.7874 71 44.6208 71 40.4541V39.8713L70.424 39.9599C66.0906 40.6266 61.7573 41.2932 57.424 41.9599L57.9211 42.7236C60.5878 38.557 63.2545 34.3903 65.9211 30.2236L66.4136 29.4541H65.5C63.1667 29.4541 60.8333 29.4541 58.5 29.4541L58.9218 30.2225C61.2552 26.5559 63.5885 22.8892 65.9218 19.2225L66.5359 18.2576L65.4106 18.4622C63.5772 18.7955 61.7439 19.1288 59.9106 19.4622L60.4096 20.2408C63.9096 15.2408 67.4096 10.2408 70.9096 5.24083L70.0588 5.1894C72.7255 10.1894 75.3922 15.1894 78.0588 20.1894L78.6857 19.4899C77.019 18.8232 75.3524 18.1565 73.6857 17.4899L72.3352 16.9497L73.0681 18.206C75.4014 22.206 77.7348 26.206 80.0681 30.206L80.5 29.4541C78.1667 29.4541 75.8333 29.4541 73.5 29.4541H72.2929L73.1464 30.3077C76.3131 33.4743 79.4798 36.641 82.6464 39.8077L83 38.9541C82.6191 38.9541 82.2382 38.9541 81.8572 38.9541C79.7578 38.9541 77.6585 38.9541 75.5591 38.9541C74.8727 38.9541 74.1864 38.9541 73.5 38.9541ZM73.5 39.9541V38.9541H73V39.4541H74L73.5 39.9541Z" fill="#FF7E0D"/>
<path d="M106.5 48.4541L115 50.4541L110.5 43.4541L106.5 37.9541H115L107.5 27.9541H113.5L103.5 12.9541L93 27.9541H100L90.5 40.4541L100 37.9541L90.5 50.4541L102.5 48.4541V60.9541H105.5L106.5 48.4541Z" fill="url(#paint3_radial_9316_24)"/>
<path d="M114.885 50.9408C114.962 50.6163 115.038 50.2919 115.115 49.9674C114.413 49.8022 113.711 49.637 113.009 49.4719C110.877 48.9704 108.746 48.4689 106.615 47.9674L106.048 47.8341L106.002 48.4142C106 48.4305 105.999 48.4468 105.998 48.463C105.666 52.6134 105.334 56.7638 105.002 60.9142L105.5 60.4541C104.5 60.4541 103.5 60.4541 102.5 60.4541L103 60.9541C103 56.7874 103 52.6208 103 48.4541V47.8639L102.418 47.9609C98.4178 48.6276 94.4178 49.2942 90.4178 49.9609L90.8981 50.7566C94.0647 46.59 97.2314 42.4233 100.398 38.2566L101.276 37.1012L99.8728 37.4706C96.7061 38.3039 93.5394 39.1372 90.3728 39.9706L90.8981 40.7566C94.0647 36.59 97.2314 32.4233 100.398 28.2566L101.008 27.4541H100C97.6667 27.4541 95.3333 27.4541 93 27.4541L93.4096 28.2408C96.9096 23.2408 100.41 18.2408 103.91 13.2408L103.084 13.2315C106.417 18.2315 109.751 23.2315 113.084 28.2315L113.5 27.4541C111.5 27.4541 109.5 27.4541 107.5 27.4541H106.5L107.1 28.2541C109.6 31.5874 112.1 34.9208 114.6 38.2541L115 37.4541C112.167 37.4541 109.333 37.4541 106.5 37.4541H105.518L106.096 38.2482C107.339 39.9577 108.582 41.6672 109.825 43.3766C109.915 43.5005 110.006 43.6243 110.096 43.7482L110.079 43.7245C111.579 46.0578 113.079 48.3911 114.579 50.7245C114.86 50.5442 115.14 50.364 115.421 50.1837C113.921 47.8504 112.421 45.5171 110.921 43.1837L110.904 43.16C110.814 43.0362 110.724 42.9123 110.634 42.7885C109.391 41.079 108.148 39.3695 106.904 37.66L106.5 38.4541C109.333 38.4541 112.167 38.4541 115 38.4541H116L115.4 37.6541C112.9 34.3208 110.4 30.9874 107.9 27.6541L107.5 28.4541C109.5 28.4541 111.5 28.4541 113.5 28.4541H114.434L113.916 27.6768C110.583 22.6768 107.249 17.6768 103.916 12.6768L103.51 12.0678L103.09 12.6674C99.5904 17.6674 96.0904 22.6674 92.5904 27.6674L92.0397 28.4541H93C95.3333 28.4541 97.6667 28.4541 100 28.4541L99.6019 27.6516C96.4353 31.8182 93.2686 35.9849 90.1019 40.1516L89.2238 41.307L90.6272 40.9376C93.7939 40.1043 96.9606 39.271 100.127 38.4376L99.6019 37.6516C96.4353 41.8182 93.2686 45.9849 90.1019 50.1516L89.3398 51.1544L90.5822 50.9473C94.5822 50.2806 98.5822 49.614 102.582 48.9473L102 48.4541C102 52.6208 102 56.7874 102 60.9541V61.4541H102.5C103.5 61.4541 104.5 61.4541 105.5 61.4541H105.962L105.998 60.994C106.33 56.8436 106.662 52.6932 106.995 48.5428C106.996 48.5265 106.997 48.5102 106.998 48.494L106.385 48.9408C108.517 49.4423 110.648 49.9438 112.78 50.4453C113.481 50.6105 114.183 50.7756 114.885 50.9408ZM115.115 49.9674L114.885 50.9408L116.089 51.2241L115.421 50.1837L114.579 50.7245L115.115 49.9674Z" fill="#FF7E0D"/>
<path d="M86.5 49.4541H96L86.5 39.9541H93.5L86.5 27.9541L91.5 29.9541L83.5 14.9541L73 29.9541L78.5 28.9541L71.5 39.9541H78.5L70.5 52.4541L83.5 50.4541V62.9541H86.5V49.4541Z" fill="url(#paint4_radial_9316_24)"/>
<path d="M86.5 48.9541C86.5 49.2874 86.5 49.6208 86.5 49.9541C87.1864 49.9541 87.8727 49.9541 88.5591 49.9541C90.6585 49.9541 92.7578 49.9541 94.8572 49.9541C95.2382 49.9541 95.6191 49.9541 96 49.9541H97.2071L96.3536 49.1005C93.1869 45.9339 90.0202 42.7672 86.8536 39.6005L86.5 40.4541C88.8333 40.4541 91.1667 40.4541 93.5 40.4541H94.3705L93.9319 39.7022C91.5986 35.7022 89.2652 31.7022 86.9319 27.7022L86.3143 28.4183C87.981 29.085 89.6476 29.7517 91.3143 30.4183L92.5854 30.9268L91.9412 29.7188C89.2745 24.7188 86.6078 19.7188 83.9412 14.7188L83.5577 13.9998L83.0904 14.6674C79.5904 19.6674 76.0904 24.6674 72.5904 29.6674L71.893 30.6636L73.0894 30.446C74.9228 30.1127 76.7561 29.7794 78.5894 29.446L78.0782 28.6857C75.7448 32.3523 73.4115 36.019 71.0782 39.6857L70.5892 40.4541H71.5C73.8333 40.4541 76.1667 40.4541 78.5 40.4541L78.0789 39.6846C75.4122 43.8512 72.7455 48.0179 70.0789 52.1846L69.4824 53.1165L70.576 52.9483C74.9094 52.2816 79.2427 51.615 83.576 50.9483L83 50.4541C83 54.6208 83 58.7874 83 62.9541V63.4541H83.5C84.5 63.4541 85.5 63.4541 86.5 63.4541H87V62.9541C87 61.2398 87 59.5256 87 57.8113C87 55.0256 87 52.2398 87 49.4541C86.6667 49.4541 86.3333 49.4541 86 49.4541C86 52.2398 86 55.0256 86 57.8113C86 59.5256 86 61.2398 86 62.9541L86.5 62.4541C85.5 62.4541 84.5 62.4541 83.5 62.4541L84 62.9541C84 58.7874 84 54.6208 84 50.4541V49.8713L83.424 49.9599C79.0906 50.6266 74.7573 51.2932 70.424 51.9599L70.9211 52.7236C73.5878 48.557 76.2545 44.3903 78.9211 40.2236L79.4136 39.4541H78.5C76.1667 39.4541 73.8333 39.4541 71.5 39.4541L71.9218 40.2225C74.2552 36.5559 76.5885 32.8892 78.9218 29.2225L79.5359 28.2576L78.4106 28.4622C76.5772 28.7955 74.7439 29.1288 72.9106 29.4622L73.4096 30.2408C76.9096 25.2408 80.4096 20.2408 83.9096 15.2408L83.0588 15.1894C85.7255 20.1894 88.3922 25.1894 91.0588 30.1894L91.6857 29.4899C90.019 28.8232 88.3524 28.1565 86.6857 27.4899L85.3352 26.9497L86.0681 28.206C88.4014 32.206 90.7348 36.206 93.0681 40.206L93.5 39.4541C91.1667 39.4541 88.8333 39.4541 86.5 39.4541H85.2929L86.1464 40.3077C89.3131 43.4743 92.4798 46.641 95.6464 49.8077L96 48.9541C95.6191 48.9541 95.2382 48.9541 94.8572 48.9541C92.7578 48.9541 90.6585 48.9541 88.5591 48.9541C87.8727 48.9541 87.1864 48.9541 86.5 48.9541ZM86.5 49.9541V48.9541H86V49.4541H87L86.5 49.9541Z" fill="#FF7E0D"/>
<path d="M131.5 72.4541L140 74.4541L136.5 66.9541L131.5 61.9541H138.5L130.5 51.9541H136.5L128.5 36.9541L118 51.9541L123.5 50.9541L115.5 64.4541L123.5 61.9541L115.5 74.4541L127.5 72.4541V84.9541H130.5L131.5 72.4541Z" fill="url(#paint5_radial_9316_24)"/>
<path d="M139.885 74.9408C139.962 74.6163 140.038 74.2919 140.115 73.9674C139.435 73.8076 138.756 73.6478 138.077 73.488C136 72.9992 133.922 72.5104 131.845 72.0216C131.768 72.0036 131.691 71.9855 131.615 71.9674L131.048 71.8341L131.002 72.4142C130.668 76.5809 130.335 80.7476 130.002 84.9142L130.5 84.4541C129.5 84.4541 128.5 84.4541 127.5 84.4541L128 84.9541C128 80.7874 128 76.6208 128 72.4541V71.8639L127.418 71.9609C123.418 72.6276 119.418 73.2942 115.418 73.9609L115.921 74.7236C118.588 70.557 121.254 66.3903 123.921 62.2236L124.661 61.0674L123.351 61.4769C120.684 62.3102 118.018 63.1435 115.351 63.9769L115.93 64.709C118.597 60.209 121.263 55.709 123.93 51.209L124.489 50.2661L123.411 50.4622C121.577 50.7955 119.744 51.1288 117.911 51.4622L118.41 52.2408C121.91 47.2408 125.41 42.2408 128.91 37.2408L128.059 37.1894C130.725 42.1894 133.392 47.1894 136.059 52.1894L136.5 51.4541C134.5 51.4541 132.5 51.4541 130.5 51.4541H129.46L130.11 52.2664C132.776 55.5998 135.443 58.9331 138.11 62.2664L138.5 61.4541C136.167 61.4541 133.833 61.4541 131.5 61.4541H130.293L131.146 62.3077C132.762 63.9227 134.377 65.5378 135.992 67.1529C136.043 67.2045 136.095 67.2561 136.146 67.3077L136.047 67.1655C137.214 69.6655 138.38 72.1655 139.547 74.6655C139.849 74.5246 140.151 74.3836 140.453 74.2427C139.286 71.7427 138.12 69.2427 136.953 66.7427L136.854 66.6005C136.802 66.549 136.75 66.4974 136.699 66.4458C135.084 64.8307 133.469 63.2156 131.854 61.6005L131.5 62.4541C133.833 62.4541 136.167 62.4541 138.5 62.4541H139.54L138.89 61.6418C136.224 58.3084 133.557 54.9751 130.89 51.6418L130.5 52.4541C132.5 52.4541 134.5 52.4541 136.5 52.4541H137.333L136.941 51.7188C134.275 46.7188 131.608 41.7188 128.941 36.7188L128.558 35.9998L128.09 36.6674C124.59 41.6674 121.09 46.6674 117.59 51.6674L116.893 52.6636L118.089 52.446C119.923 52.1127 121.756 51.7794 123.589 51.446L123.07 50.6992C120.403 55.1992 117.737 59.6992 115.07 64.1992L114.406 65.3199L115.649 64.9313C118.316 64.098 120.982 63.2647 123.649 62.4313L123.079 61.6846C120.412 65.8512 117.746 70.0179 115.079 74.1846L114.472 75.1323L115.582 74.9473C119.582 74.2806 123.582 73.614 127.582 72.9473L127 72.4541C127 76.6208 127 80.7874 127 84.9541V85.4541H127.5C128.5 85.4541 129.5 85.4541 130.5 85.4541H130.962L130.998 84.994C131.332 80.8273 131.665 76.6606 131.998 72.494L131.385 72.9408C131.462 72.9589 131.539 72.977 131.616 72.9951C133.693 73.4838 135.771 73.9726 137.848 74.4614C138.527 74.6212 139.206 74.781 139.885 74.9408ZM140.115 73.9674L139.885 74.9408L140.889 75.177L140.453 74.2427L139.547 74.6655L140.115 73.9674Z" fill="#FF7E0D"/>
<defs>
<linearGradient id="paint0_linear_9316_24" x1="-14.5" y1="111.963" x2="187.532" y2="407.534" gradientUnits="userSpaceOnUse">
<stop stop-color="#FF8C00" stop-opacity="0.44"/>
<stop offset="1" stop-color="#FF7700"/>
</linearGradient>
<radialGradient id="paint1_radial_9316_24" cx="0" cy="0" r="1" gradientUnits="userSpaceOnUse" gradientTransform="translate(57.25 24.9541) rotate(90) scale(24 12.75)">
<stop stop-color="#C33030"/>
<stop offset="1" stop-color="#FF7E0D"/>
</radialGradient>
<radialGradient id="paint2_radial_9316_24" cx="0" cy="0" r="1" gradientUnits="userSpaceOnUse" gradientTransform="translate(70.25 28.9541) rotate(90) scale(24 12.75)">
<stop stop-color="#C33030"/>
<stop offset="1" stop-color="#FF7E0D"/>
</radialGradient>
<radialGradient id="paint3_radial_9316_24" cx="0" cy="0" r="1" gradientUnits="userSpaceOnUse" gradientTransform="translate(103.25 36.9541) rotate(90) scale(24 12.75)">
<stop stop-color="#C33030"/>
<stop offset="1" stop-color="#FF7E0D"/>
</radialGradient>
<radialGradient id="paint4_radial_9316_24" cx="0" cy="0" r="1" gradientUnits="userSpaceOnUse" gradientTransform="translate(83.25 38.9541) rotate(90) scale(24 12.75)">
<stop stop-color="#C33030"/>
<stop offset="1" stop-color="#FF7E0D"/>
</radialGradient>
<radialGradient id="paint5_radial_9316_24" cx="0" cy="0" r="1" gradientUnits="userSpaceOnUse" gradientTransform="translate(128.25 60.9541) rotate(90) scale(24 12.75)">
<stop stop-color="#C33030"/>
<stop offset="1" stop-color="#FF7E0D"/>
</radialGradient>
</defs>
</svg>
